<svg xmlns="http://www.w3.org/2000/svg" xmlns:xlink="http://www.w3.org/1999/xlink" width="853.035" height="954.157" viewBox="0 0 853.035 954.157">
  <defs>
    <clipPath id="clip-path">
      <path id="Path_5664" data-name="Path 5664" d="M81.862,34.575a8.964,8.964,0,0,0-3.747.828L66.968,27.444a17.64,17.64,0,0,0-1.323-15.7L79.534-2.145a9.14,9.14,0,0,0,2.329.337,9.1,9.1,0,0,0,9.1-9.1,9.1,9.1,0,0,0-9.1-9.1,9.1,9.1,0,0,0-9.1,9.1A9.141,9.141,0,0,0,73.1-8.576L59.214,5.314A17.922,17.922,0,0,0,36.87,8.42L18.192-1.968A9.1,9.1,0,0,0,9.1-10.9,9.1,9.1,0,0,0,0-1.808a9.1,9.1,0,0,0,9.1,9.1,8.978,8.978,0,0,0,4.643-1.314l18.742,10.41a17.914,17.914,0,0,0-.646,4.548,18.01,18.01,0,0,0,2.574,9.187L11.424,53.1a9.245,9.245,0,1,0,6.435,6.433L40.84,36.549a17.914,17.914,0,0,0,4.639,1.928V54.026a9.1,9.1,0,1,0,9.1,0V38.477a17.964,17.964,0,0,0,7.072-3.638l11.206,8a7.7,7.7,0,0,0-.086.828,9.1,9.1,0,1,0,9.1-9.1" transform="translate(0 20)" fill="none"/>
    </clipPath>
    <clipPath id="clip-path-2">
      <path id="Path_5664-2" data-name="Path 5664" d="M10.846-12.77a1.188,1.188,0,0,0-.5.11L8.872-13.714a2.4,2.4,0,0,0,.166-.863A2.386,2.386,0,0,0,8.7-15.794l1.84-1.84a1.211,1.211,0,0,0,.309.045,1.2,1.2,0,0,0,1.2-1.2,1.205,1.205,0,0,0-.354-.854A1.2,1.2,0,0,0,10.846-20a1.2,1.2,0,0,0-1.2,1.2,1.211,1.211,0,0,0,.045.308l-1.84,1.84a2.386,2.386,0,0,0-1.217-.341,2.4,2.4,0,0,0-1.743.753L2.41-17.611A1.205,1.205,0,0,0,1.2-18.8,1.205,1.205,0,0,0,0-17.59a1.205,1.205,0,0,0,1.2,1.2,1.189,1.189,0,0,0,.615-.174L4.3-15.18a2.373,2.373,0,0,0-.086.6,2.386,2.386,0,0,0,.341,1.217L1.514-10.315a1.215,1.215,0,0,0-.308-.045,1.205,1.205,0,0,0-.853.353A1.2,1.2,0,0,0,0-9.154a1.2,1.2,0,0,0,1.2,1.2,1.205,1.205,0,0,0,1.205-1.2,1.215,1.215,0,0,0-.045-.309L5.41-12.508a2.373,2.373,0,0,0,.615.255v2.06a1.2,1.2,0,0,0-.6,1.038,1.205,1.205,0,0,0,1.2,1.206A1.205,1.205,0,0,0,7.833-9.154a1.2,1.2,0,0,0-.6-1.038v-2.061a2.38,2.38,0,0,0,.937-.482l1.485,1.06a1.02,1.02,0,0,0-.011.11,1.205,1.205,0,0,0,1.205,1.2,1.2,1.2,0,0,0,1.2-1.2,1.2,1.2,0,0,0-1.2-1.2" transform="translate(0 20)" fill="none"/>
    </clipPath>
  </defs>
  <g id="Group_9" data-name="Group 9" transform="translate(-44 -47.843)">
    <g id="ad_panel" data-name="ad panel" transform="translate(44 48)" fill="#f1f0ff">
      <path d="M 847.89208984375 953.5 L 5.107764720916748 953.5 C 2.567058801651001 953.5 0.5 951.9298706054688 0.5 950 L 0.5 4 C 0.5 2.070117712020874 2.567058801651001 0.5 5.107764720916748 0.5 L 847.89208984375 0.5 C 850.4329223632812 0.5 852.5 2.070117712020874 852.5 4 L 852.5 950 C 852.5 951.9298706054688 850.4329223632812 953.5 847.89208984375 953.5 Z" stroke="none"/>
      <path d="M 5.1077880859375 1 C 3.96588134765625 1 2.902099609375 1.340576171875 2.11260986328125 1.95880126953125 C 1.39520263671875 2.52069091796875 1 3.24566650390625 1 4 L 1 950 C 1 950.7543334960938 1.39520263671875 951.4793090820312 2.11260986328125 952.0411987304688 C 2.902099609375 952.659423828125 3.96588134765625 953 5.1077880859375 953 L 847.89208984375 953 C 849.0339965820312 953 850.0977783203125 952.659423828125 850.8873901367188 952.0411987304688 C 851.6047973632812 951.4793090820312 852 950.7543334960938 852 950 L 852 4 C 852 3.24566650390625 851.6047973632812 2.52069091796875 850.8873901367188 1.95880126953125 C 850.0977783203125 1.340576171875 849.0339965820312 1 847.89208984375 1 L 5.1077880859375 1 M 5.1077880859375 0 L 847.89208984375 0 C 850.7131958007812 0 853 1.79083251953125 853 4 L 853 950 C 853 952.2091674804688 850.7131958007812 954 847.89208984375 954 L 5.1077880859375 954 C 2.28680419921875 954 0 952.2091674804688 0 950 L 0 4 C 0 1.79083251953125 2.28680419921875 0 5.1077880859375 0 Z" stroke="none" fill="#dad8d8"/>
    </g>
    <g id="light_background" data-name="light background" transform="translate(44 47.843)" opacity="0.25">
      <path id="bg" d="M0,0H852.234V953.923H0Z" transform="translate(0.065 0.234)" fill="#f6f1ff"/>
      <g id="bg-2" data-name="bg" opacity="0.13">
        <path id="Path_3156" data-name="Path 3156" d="M2960-4951.925s163.337,220.211,852.154,348.181c0-9.41.03-184.687.03-184.687L2960-5094.534Z" transform="translate(-2959.931 5490.375)" fill="#deccea"/>
        <path id="Path_3157" data-name="Path 3157" d="M2960.018-4915.043S3143.7-4751.5,3812.173-4605.074c0-3.948.06-145.145.06-145.145S3369.664-4861,2959.98-5059.266C2959.98-5055.95,2960.018-4915.043,2960.018-4915.043Z" transform="translate(-2959.95 5312.443)" fill="#7a787c"/>
        <path id="Path_3158" data-name="Path 3158" d="M3383.189-4701.052c6.062-.057,127.289-.008,230.9,0s87.8.012,199.147.075l-.1-68.29s-687.725-127.037-852.125-360.226c.034,2.13-.06,181.958.011,182.707C3023.107-4868.521,3231.3-4716.459,3383.189-4701.052Z" transform="translate(-2960.935 5655.045)" fill="#7f748a"/>
        <path id="Path_3159" data-name="Path 3159" d="M2959.965-4883.882l337.438.168s-140.981-15.161-337.4-246.745C2960.008-5130.575,2959.965-4883.882,2959.965-4883.882Z" transform="translate(-2959.965 5837.871)" fill="#61566e"/>
        <path id="Path_3160" data-name="Path 3160" d="M2959.993-4879.419s165.069,163.082,760.488,309.237l.024-198.018s-563.3-126.346-760.448-364.093C2960.022-5130.864,2959.993-4879.419,2959.993-4879.419Z" transform="translate(-2883.941 5144.609)" fill="#9f9c9e"/>
        <path id="Path_3162" data-name="Path 3162" d="M3018.23-4906.718s-66.267,19.441,462.491,192.309c2.141,2.612.584-192.543.584-192.543Z" transform="translate(-2628.817 4906.953)" fill="#f0ecee"/>
        <path id="Path_3161" data-name="Path 3161" d="M2960-5005.323s154.157,240.883,852.22,372.737c.03-2.515.1-198.237.1-198.237s-162.12-6.858-587.236-174.475C3221.973-5005.279,2960-5005.323,2960-5005.323Z" transform="translate(-2959.939 5005.532)" fill="#cdc9cc"/>
      </g>
    </g>
    <g id="Group_8" data-name="Group 8" transform="translate(16 -2)">
      <g id="Layer_2_copy_2" transform="translate(262.9 89.981)">
        <g id="Group_3" data-name="Group 3" transform="translate(179.858 24.8)">
          <path id="Path_17" data-name="Path 17" d="M477.3,26.1h5.608V51.641H477.3Z" transform="translate(-477.3 -25.661)" fill="#472f92"/>
          <path id="Path_18" data-name="Path 18" d="M509.5,38.077V38.01A13.217,13.217,0,0,1,523.115,24.8c7.872,0,13.547,5.878,13.547,13.142v.068a13.217,13.217,0,0,1-13.615,13.21C515.176,51.219,509.5,45.341,509.5,38.077Zm21.284,0V38.01a7.763,7.763,0,0,0-7.737-8.041,7.641,7.641,0,0,0-7.669,7.939v.068a7.763,7.763,0,0,0,7.737,8.041A7.622,7.622,0,0,0,530.784,38.077Z" transform="translate(-498.622 -24.8)" fill="#472f92"/>
          <path id="Path_19" data-name="Path 19" d="M603.77,31.3H596V26.1h21.149v5.169h-7.77V51.641H603.77Z" transform="translate(-555.898 -25.661)" fill="#472f92"/>
        </g>
        <g id="Group_4" data-name="Group 4" transform="translate(28.1 25.104)">
          <path id="Path_20" data-name="Path 20" d="M28.1,25.7H46.276v1.757H30.026V37.491H44.654v1.757H30.026V49.484H46.478v1.757H28.1Z" transform="translate(-28.1 -25.7)" fill="#472f92"/>
          <path id="Path_21" data-name="Path 21" d="M103.016,54.172l6.318-7.872H111.5l-7.331,9.088,7.635,9.527h-2.23l-6.554-8.277-6.554,8.277H94.3l7.6-9.493L94.536,46.3h2.23Z" transform="translate(-71.935 -39.34)" fill="#472f92"/>
          <path id="Path_22" data-name="Path 22" d="M158.5,48.4V36.2h-2.7V34.546h2.7V28.6h1.791v5.946h6.52V36.2h-6.52V48.195c0,2.669,1.554,3.615,3.716,3.615a6.186,6.186,0,0,0,2.736-.642v1.689a6.808,6.808,0,0,1-3.041.642C160.834,53.5,158.5,51.945,158.5,48.4Z" transform="translate(-112.658 -27.62)" fill="#472f92"/>
          <path id="Path_23" data-name="Path 23" d="M204.1,45.754h1.791v5.3a8.764,8.764,0,0,1,8.243-5.574v1.959h-.169c-4.291,0-8.074,3.243-8.074,9.291v7.635H204.1Z" transform="translate(-144.64 -38.795)" fill="#472f92"/>
          <path id="Path_24" data-name="Path 24" d="M240.8,54.764V54.7c0-5.405,3.784-9.7,8.818-9.7,5.2,0,8.547,4.223,8.547,9.73a5.226,5.226,0,0,1-.034.743H242.692c.338,4.628,3.649,7.331,7.3,7.331a8.414,8.414,0,0,0,6.385-2.905l1.25,1.081a9.832,9.832,0,0,1-7.7,3.514C245.023,64.46,240.8,60.574,240.8,54.764Zm15.439-.912c-.27-3.75-2.4-7.23-6.689-7.23-3.682,0-6.52,3.108-6.858,7.23Z" transform="translate(-168.941 -38.48)" fill="#472f92"/>
          <path id="Path_25" data-name="Path 25" d="M307.6,45.439h1.791V48.75c1.216-1.926,2.872-3.75,6.216-3.75a6.677,6.677,0,0,1,6.284,4.02A7.386,7.386,0,0,1,328.614,45c4.426,0,7.162,3.108,7.162,7.77V64.054h-1.791V52.973c0-4.02-2.095-6.351-5.507-6.351-3.142,0-5.878,2.4-5.878,6.554V64.02H320.81V52.872c0-3.851-2.128-6.25-5.439-6.25s-5.946,2.905-5.946,6.689V64.054h-1.791V45.439Z" transform="translate(-213.174 -38.48)" fill="#472f92"/>
          <path id="Path_26" data-name="Path 26" d="M406.6,54.764V54.7c0-5.405,3.784-9.7,8.818-9.7,5.2,0,8.547,4.223,8.547,9.73a5.236,5.236,0,0,1-.034.743H408.492c.338,4.628,3.649,7.331,7.3,7.331a8.414,8.414,0,0,0,6.385-2.905l1.25,1.081a9.832,9.832,0,0,1-7.7,3.514C410.823,64.46,406.6,60.574,406.6,54.764Zm15.439-.912c-.27-3.75-2.4-7.23-6.689-7.23-3.682,0-6.52,3.108-6.858,7.23Z" transform="translate(-278.728 -38.48)" fill="#472f92"/>
        </g>
        <g id="Group_5" data-name="Group 5" transform="translate(246.209 35.374)">
          <path id="Path_27" data-name="Path 27" d="M673.7,57.9h10.878v2.3h-8.311v3.818h7.365v2.3h-7.365v3.953h8.412v2.3H673.7V57.9Z" transform="translate(-673.7 -57.292)" fill="#666"/>
          <path id="Path_28" data-name="Path 28" d="M711.7,77.831l1.115-1.723a6.179,6.179,0,0,0,3.615,1.351c1.081,0,1.723-.473,1.723-1.182v-.034c0-.845-1.182-1.149-2.466-1.554-1.622-.473-3.446-1.115-3.446-3.243v-.068c0-2.095,1.723-3.378,3.953-3.378a7.539,7.539,0,0,1,4.054,1.25l-1.014,1.791a6.529,6.529,0,0,0-3.108-1.047c-.98,0-1.554.473-1.554,1.081v.034c0,.811,1.182,1.149,2.5,1.588,1.622.507,3.446,1.25,3.446,3.209v.034c0,2.331-1.791,3.48-4.122,3.48A7.315,7.315,0,0,1,711.7,77.831Z" transform="translate(-698.862 -63.98)" fill="#666"/>
          <path id="Path_29" data-name="Path 29" d="M742.1,77.831l1.115-1.723a6.178,6.178,0,0,0,3.615,1.351c1.081,0,1.723-.473,1.723-1.182v-.034c0-.845-1.182-1.149-2.466-1.554-1.622-.473-3.446-1.115-3.446-3.243v-.068c0-2.095,1.723-3.378,3.953-3.378a7.539,7.539,0,0,1,4.054,1.25l-1.014,1.791a6.528,6.528,0,0,0-3.108-1.047c-.98,0-1.554.473-1.554,1.081v.034c0,.811,1.182,1.149,2.5,1.588,1.622.507,3.446,1.25,3.446,3.209v.034c0,2.331-1.791,3.48-4.122,3.48A7.379,7.379,0,0,1,742.1,77.831Z" transform="translate(-718.992 -63.98)" fill="#666"/>
          <path id="Path_30" data-name="Path 30" d="M774.1,73.777v-.034A5.46,5.46,0,0,1,779.505,68c3.514,0,5.3,2.77,5.3,5.946,0,.236-.034.473-.034.709h-8.142a3.092,3.092,0,0,0,3.176,2.8,4.066,4.066,0,0,0,3.007-1.318L784.3,77.46a5.617,5.617,0,0,1-4.527,2.061A5.519,5.519,0,0,1,774.1,73.777Zm8.176-.811c-.169-1.622-1.115-2.905-2.8-2.905a2.987,2.987,0,0,0-2.872,2.905Z" transform="translate(-740.181 -63.98)" fill="#666"/>
          <path id="Path_31" data-name="Path 31" d="M813.3,68.136h2.534v1.689A4.007,4.007,0,0,1,819.28,67.9c2.5,0,3.953,1.689,3.953,4.223v7.061H820.7V72.9c0-1.723-.845-2.7-2.365-2.7a2.464,2.464,0,0,0-2.5,2.736v6.25H813.3Z" transform="translate(-766.138 -63.913)" fill="#666"/>
          <path id="Path_32" data-name="Path 32" d="M850.519,70.647V64.8H849.1V62.641h1.419V59.6h2.534v3.041h2.973V64.8h-2.973v5.439a1.209,1.209,0,0,0,1.351,1.385,3.4,3.4,0,0,0,1.554-.372v2.061a4.285,4.285,0,0,1-2.3.574C851.836,73.891,850.519,73.08,850.519,70.647Z" transform="translate(-789.843 -58.418)" fill="#666"/>
          <path id="Path_33" data-name="Path 33" d="M877.3,56.4h2.736v2.4H877.3Zm.135,4.122h2.534V71.569h-2.534Z" transform="translate(-808.516 -56.299)" fill="#666"/>
          <path id="Path_34" data-name="Path 34" d="M892.8,76.207v-.034c0-2.4,1.858-3.547,4.561-3.547a9.128,9.128,0,0,1,2.973.473v-.27c0-1.554-.98-2.4-2.737-2.4a7.958,7.958,0,0,0-3.176.676l-.676-1.993A9.443,9.443,0,0,1,897.9,68.2a4.807,4.807,0,0,1,3.649,1.25,4.615,4.615,0,0,1,1.182,3.412v6.554H900.3V78.031a4.437,4.437,0,0,1-3.615,1.622C894.624,79.619,892.8,78.437,892.8,76.207Zm7.568-.777v-.743a7.372,7.372,0,0,0-2.5-.439c-1.622,0-2.6.676-2.6,1.858v.034c0,1.081.946,1.689,2.162,1.689C899.084,77.795,900.368,76.815,900.368,75.43Z" transform="translate(-818.779 -64.112)" fill="#666"/>
          <path id="Path_35" data-name="Path 35" d="M931.8,56.1h2.534V71.4H931.8Z" transform="translate(-844.604 -56.1)" fill="#666"/>
          <path id="Path_36" data-name="Path 36" d="M946.4,77.831l1.115-1.723a6.178,6.178,0,0,0,3.615,1.351c1.081,0,1.723-.473,1.723-1.182v-.034c0-.845-1.182-1.149-2.466-1.554-1.622-.473-3.446-1.115-3.446-3.243v-.068c0-2.095,1.723-3.378,3.953-3.378a7.539,7.539,0,0,1,4.054,1.25l-1.014,1.791a6.528,6.528,0,0,0-3.108-1.047c-.98,0-1.554.473-1.554,1.081v.034c0,.811,1.182,1.149,2.5,1.588,1.622.507,3.446,1.25,3.446,3.209v.034c0,2.331-1.791,3.48-4.122,3.48A7.378,7.378,0,0,1,946.4,77.831Z" transform="translate(-854.271 -63.98)" fill="#666"/>
        </g>
      </g>
      <g id="X-IoT-subscribe" transform="translate(302 215)">
        <g id="Group_10218" data-name="Group 10218" transform="translate(-349.832 -251.999)">
          <rect id="Rectangle_1" data-name="Rectangle 1" width="185" height="231" rx="16" transform="translate(413.881 251.999)" fill="#8774d4"/>
          <rect id="Rectangle_2" data-name="Rectangle 2" width="159" height="144" transform="translate(428 287)" fill="#b22fdf"/>
          <rect id="Rectangle_3" data-name="Rectangle 3" width="87" height="10" rx="5" transform="translate(463.881 263.999)" fill="#fff"/>
          <circle id="Ellipse_1" data-name="Ellipse 1" cx="13.5" cy="13.5" r="13.5" transform="translate(491.881 443.999)" fill="#fff"/>
          <g id="Group_7550" data-name="Group 7550" transform="translate(462.117 333.949)">
            <g id="Group_7549" data-name="Group 7549" transform="translate(0 -20)" clip-path="url(#clip-path)">
              <path id="Path_5663" data-name="Path 5663" d="M-5-25H131.437V111.437H-5Z" transform="translate(-17.74 2.26)" fill="#fff"/>
            </g>
          </g>
        </g>
        <path id="Path_1" data-name="Path 1" d="M298.448,216.19c0,81.356-66.81,147.308-149.224,147.308a152.761,152.761,0,0,1-23.9-1.879C54.357,350.423,0,289.573,0,216.19,0,134.834,298.448,176.976,298.448,216.19Z" transform="translate(0 -78.679)" fill="#fff" opacity="0.38"/>
      </g>
      <path id="Path_13021" data-name="Path 13021" d="M-75.361,0h1V-7.358L-71.045-2.5h.052l3.315-4.875V0h1.027V-9.1h-1.04l-3.315,4.966L-74.321-9.1h-1.04Zm13.117.143a2.945,2.945,0,0,0,2.431-1.157V0h.962V-4.108a2.653,2.653,0,0,0-.689-1.963,2.949,2.949,0,0,0-2.171-.741,5.55,5.55,0,0,0-2.444.559l.3.819a4.68,4.68,0,0,1,2.041-.494c1.261,0,2,.624,2,1.833v.234a7.136,7.136,0,0,0-2.067-.286c-1.7,0-2.873.754-2.873,2.171v.026A2.264,2.264,0,0,0-62.244.143Zm.195-.793c-.91,0-1.69-.494-1.69-1.339v-.026c0-.845.7-1.391,1.963-1.391A7.011,7.011,0,0,1-59.8-3.12v.65A2.032,2.032,0,0,1-62.049-.65Zm5.33.65h1V-3.848A1.978,1.978,0,0,1-53.7-5.954a1.791,1.791,0,0,1,1.859,2.028V0h1V-4.173a2.455,2.455,0,0,0-2.574-2.691,2.545,2.545,0,0,0-2.3,1.313v-1.17h-1Zm10.01.143a2.945,2.945,0,0,0,2.431-1.157V0h.962V-4.108A2.653,2.653,0,0,0-44-6.071a2.949,2.949,0,0,0-2.171-.741,5.55,5.55,0,0,0-2.444.559l.3.819a4.68,4.68,0,0,1,2.041-.494c1.261,0,2,.624,2,1.833v.234a7.136,7.136,0,0,0-2.067-.286c-1.7,0-2.873.754-2.873,2.171v.026A2.264,2.264,0,0,0-46.709.143Zm.195-.793c-.91,0-1.69-.494-1.69-1.339v-.026c0-.845.7-1.391,1.963-1.391a7.011,7.011,0,0,1,1.976.286v.65A2.032,2.032,0,0,1-46.514-.65Zm8.307,2.756a3.534,3.534,0,0,0,2.561-.9,3.238,3.238,0,0,0,.858-2.379V-6.721h-1v1.209a3.151,3.151,0,0,0-2.626-1.352,3.121,3.121,0,0,0-3.159,3.172v.026A3.108,3.108,0,0,0-38.415-.52a3.186,3.186,0,0,0,2.639-1.417v.793A2.209,2.209,0,0,1-38.22,1.248,4.294,4.294,0,0,1-40.807.39l-.455.78A5.269,5.269,0,0,0-38.207,2.106ZM-38.22-1.4a2.275,2.275,0,0,1-2.327-2.288v-.026A2.223,2.223,0,0,1-38.22-5.98,2.355,2.355,0,0,1-35.75-3.7v.026A2.372,2.372,0,0,1-38.22-1.4Zm8.606,1.56a3.469,3.469,0,0,0,2.769-1.261l-.624-.559a2.781,2.781,0,0,1-2.119.949A2.347,2.347,0,0,1-31.954-2.99h5.33a2.611,2.611,0,0,0,.013-.325c0-1.963-1.144-3.549-3.133-3.549a3.315,3.315,0,0,0-3.224,3.5v.026A3.341,3.341,0,0,0-29.614.156Zm-2.34-3.887A2.317,2.317,0,0,1-29.77-6.019a2.213,2.213,0,0,1,2.145,2.288Zm13,3.874a2.945,2.945,0,0,0,2.431-1.157V0h.962V-4.108a2.653,2.653,0,0,0-.689-1.963,2.949,2.949,0,0,0-2.171-.741,5.55,5.55,0,0,0-2.444.559l.3.819a4.68,4.68,0,0,1,2.041-.494c1.261,0,2,.624,2,1.833v.234a7.136,7.136,0,0,0-2.067-.286c-1.7,0-2.873.754-2.873,2.171v.026A2.264,2.264,0,0,0-18.954.143Zm.2-.793c-.91,0-1.69-.494-1.69-1.339v-.026c0-.845.7-1.391,1.963-1.391a7.011,7.011,0,0,1,1.976.286v.65A2.032,2.032,0,0,1-18.759-.65Zm5.33.65h1V-3.848a1.978,1.978,0,0,1,2.015-2.106A1.791,1.791,0,0,1-8.554-3.926V0h1V-4.173a2.455,2.455,0,0,0-2.574-2.691,2.545,2.545,0,0,0-2.3,1.313v-1.17h-1ZM-2.6.143a3.022,3.022,0,0,0,2.574-1.5V0h1V-9.49h-1v4.056A3.032,3.032,0,0,0-2.6-6.864a3.3,3.3,0,0,0-3.211,3.5v.026A3.278,3.278,0,0,0-2.6.143Zm.182-.9a2.428,2.428,0,0,1-2.366-2.6V-3.38A2.372,2.372,0,0,1-2.418-5.967,2.5,2.5,0,0,1,.013-3.38v.026A2.51,2.51,0,0,1-2.418-.754ZM10.4.13c1.807,0,3.107-1.014,3.107-2.574V-2.47c0-1.391-.936-2.132-2.964-2.574-2-.429-2.47-.91-2.47-1.768v-.026c0-.819.754-1.469,1.937-1.469a4,4,0,0,1,2.626.988l.6-.793a4.748,4.748,0,0,0-3.2-1.118c-1.729,0-2.99,1.053-2.99,2.483v.026c0,1.495.962,2.171,3.055,2.626,1.911.4,2.366.884,2.366,1.729v.026c0,.9-.806,1.547-2.028,1.547A4.333,4.333,0,0,1,7.319-2.08l-.637.754A5.325,5.325,0,0,0,10.4.13Zm7.969.026a3.469,3.469,0,0,0,2.769-1.261l-.624-.559A2.781,2.781,0,0,1,18.4-.715,2.347,2.347,0,0,1,16.029-2.99h5.33a2.611,2.611,0,0,0,.013-.325c0-1.963-1.144-3.549-3.133-3.549a3.315,3.315,0,0,0-3.224,3.5v.026A3.341,3.341,0,0,0,18.369.156Zm-2.34-3.887a2.317,2.317,0,0,1,2.184-2.288,2.213,2.213,0,0,1,2.145,2.288ZM26.156.156a3.463,3.463,0,0,0,2.743-1.3l-.637-.6a2.773,2.773,0,0,1-2.054,1,2.511,2.511,0,0,1-2.47-2.613V-3.38a2.48,2.48,0,0,1,2.4-2.6,2.714,2.714,0,0,1,2.041,1.014l.663-.7a3.466,3.466,0,0,0-2.691-1.2,3.465,3.465,0,0,0-3.445,3.51v.026A3.451,3.451,0,0,0,26.156.156ZM33.02.143a2.56,2.56,0,0,0,2.3-1.313V0h.988V-6.721h-.988v3.848A1.985,1.985,0,0,1,33.306-.767,1.791,1.791,0,0,1,31.447-2.8V-6.721h-1v4.173A2.455,2.455,0,0,0,33.02.143ZM38.558,0h1V-2.678c0-2.028,1.2-3.081,2.665-3.081H42.3V-6.838a2.878,2.878,0,0,0-2.743,1.872V-6.721h-1Zm7.917.156a3.469,3.469,0,0,0,2.769-1.261l-.624-.559A2.781,2.781,0,0,1,46.5-.715,2.347,2.347,0,0,1,44.135-2.99h5.33a2.611,2.611,0,0,0,.013-.325c0-1.963-1.144-3.549-3.133-3.549a3.315,3.315,0,0,0-3.224,3.5v.026A3.341,3.341,0,0,0,46.475.156Zm-2.34-3.887a2.317,2.317,0,0,1,2.184-2.288,2.213,2.213,0,0,1,2.145,2.288ZM55.393,0H56.42V-9.1H55.393ZM63.31.156A4.611,4.611,0,0,0,67.964-4.55v-.026a4.567,4.567,0,0,0-4.628-4.68A4.611,4.611,0,0,0,58.682-4.55v.026A4.567,4.567,0,0,0,63.31.156Zm.026-.949A3.618,3.618,0,0,1,59.748-4.55v-.026A3.575,3.575,0,0,1,63.31-8.307,3.618,3.618,0,0,1,66.9-4.55v.026A3.575,3.575,0,0,1,63.336-.793ZM71.916,0h1.04V-8.151h3.055V-9.1h-7.15v.949h3.055Z" transform="translate(451 170)" fill="#707070"/>
      <path id="Path_13022" data-name="Path 13022" d="M-225.136,0h7.456c7.04,0,11.9-4.9,11.9-11.2v-.064c0-6.3-4.864-11.136-11.9-11.136h-7.456Zm7.456-20.864c6.24,0,10.176,4.352,10.176,9.664v.064c0,5.344-3.936,9.6-10.176,9.6h-5.792V-20.864Zm17.248.288h1.952V-22.72h-1.952ZM-200.24,0h1.568V-16.32h-1.568Zm13.024.32c3.136,0,5.632-1.856,5.632-4.768v-.064c0-2.88-2.752-3.84-5.376-4.576-2.336-.672-4.544-1.344-4.544-3.168v-.064c0-1.632,1.472-2.848,3.712-2.848a9.373,9.373,0,0,1,5.024,1.632l.832-1.312a11.018,11.018,0,0,0-5.792-1.792c-3.168,0-5.376,1.888-5.376,4.512v.064c0,2.912,2.944,3.712,5.6,4.48,2.272.64,4.32,1.344,4.32,3.264v.064c0,1.888-1.728,3.1-3.936,3.1A9.574,9.574,0,0,1-192.976-3.3l-.928,1.248A11.176,11.176,0,0,0-187.216.32Zm17.824.064a8.4,8.4,0,0,0,6.656-3.232l-1.088-.96a7.293,7.293,0,0,1-5.472,2.72,6.863,6.863,0,0,1-6.72-7.072v-.064a6.743,6.743,0,0,1,6.592-7.008,7.354,7.354,0,0,1,5.44,2.688l1.12-1.152a8.566,8.566,0,0,0-6.528-3.008,8.475,8.475,0,0,0-8.32,8.544V-8.1A8.4,8.4,0,0,0-169.392.384Zm17.824,0a8.432,8.432,0,0,0,8.416-8.544v-.064A8.344,8.344,0,0,0-151.5-16.7,8.432,8.432,0,0,0-159.92-8.16V-8.1A8.344,8.344,0,0,0-151.568.384Zm.064-1.472a6.843,6.843,0,0,1-6.72-7.072v-.064a6.733,6.733,0,0,1,6.656-7.008,6.843,6.843,0,0,1,6.72,7.072V-8.1A6.733,6.733,0,0,1-151.5-1.088ZM-133.616.128h1.344l7.328-16.448h-1.76l-6.24,14.56-6.176-14.56h-1.824Zm18.88.256a8.579,8.579,0,0,0,6.752-3.072l-1.088-.96a7.33,7.33,0,0,1-5.6,2.56c-3.2,0-6.112-2.368-6.4-6.432h13.536a4.08,4.08,0,0,0,.032-.64c0-4.832-2.912-8.544-7.488-8.544-4.416,0-7.744,3.776-7.744,8.512v.064C-122.736-3.04-119.024.384-114.736.384Zm-6.336-9.312c.288-3.616,2.784-6.336,6.016-6.336,3.744,0,5.632,3.04,5.856,6.336ZM-102.928,0h1.568V-6.688c0-5.312,3.3-8.16,7.072-8.16h.16v-1.728a7.716,7.716,0,0,0-7.232,4.9v-4.64h-1.568ZM-93.9,3.424A3.533,3.533,0,0,0-91.248-.352V-2.72H-93.36V0h.864c.1,1.216-.416,1.92-1.792,2.624ZM-68.112.32c4.32,0,7.424-2.5,7.424-6.112v-.064c0-3.264-2.176-5.12-7.36-6.176-5.312-1.088-6.528-2.528-6.528-4.9v-.064c0-2.336,2.176-4.224,5.472-4.224a9.642,9.642,0,0,1,6.688,2.528L-61.36-20a11.166,11.166,0,0,0-7.68-2.72c-4.16,0-7.2,2.56-7.2,5.888v.064c0,3.392,2.176,5.216,7.552,6.3,5.088,1.024,6.336,2.4,6.336,4.768v.064c0,2.56-2.3,4.448-5.664,4.448a10.875,10.875,0,0,1-8.032-3.328l-1.088,1.248A12.75,12.75,0,0,0-68.112.32Zm19.424.064a8.579,8.579,0,0,0,6.752-3.072l-1.088-.96a7.33,7.33,0,0,1-5.6,2.56c-3.2,0-6.112-2.368-6.4-6.432h13.536a4.08,4.08,0,0,0,.032-.64c0-4.832-2.912-8.544-7.488-8.544-4.416,0-7.744,3.776-7.744,8.512v.064C-56.688-3.04-52.976.384-48.688.384Zm-6.336-9.312c.288-3.616,2.784-6.336,6.016-6.336,3.744,0,5.632,3.04,5.856,6.336ZM-29.68.384a8.4,8.4,0,0,0,6.656-3.232l-1.088-.96a7.293,7.293,0,0,1-5.472,2.72A6.863,6.863,0,0,1-36.3-8.16v-.064a6.743,6.743,0,0,1,6.592-7.008,7.354,7.354,0,0,1,5.44,2.688l1.12-1.152A8.567,8.567,0,0,0-29.68-16.7,8.475,8.475,0,0,0-38-8.16V-8.1A8.4,8.4,0,0,0-29.68.384Zm17.28,0A6.39,6.39,0,0,0-6.512-3.04V0h1.568V-16.32H-6.512v9.44a5.6,5.6,0,0,1-5.664,5.824c-3.3,0-5.184-2.208-5.184-5.568v-9.7h-1.568v9.984C-18.928-2.432-16.528.384-12.4.384ZM1.008,0H2.576V-6.688c0-5.312,3.3-8.16,7.072-8.16h.16v-1.728a7.716,7.716,0,0,0-7.232,4.9v-4.64H1.008Zm18.88.384A8.579,8.579,0,0,0,26.64-2.688l-1.088-.96a7.33,7.33,0,0,1-5.6,2.56c-3.2,0-6.112-2.368-6.4-6.432H27.088a4.08,4.08,0,0,0,.032-.64c0-4.832-2.912-8.544-7.488-8.544-4.416,0-7.744,3.776-7.744,8.512v.064C11.888-3.04,15.6.384,19.888.384ZM13.552-8.928c.288-3.616,2.784-6.336,6.016-6.336,3.744,0,5.632,3.04,5.856,6.336ZM46.256.384a7.423,7.423,0,0,0,6.24-3.1V0h1.536V-10.176a6.2,6.2,0,0,0-1.664-4.608,7.051,7.051,0,0,0-5.152-1.792,13.114,13.114,0,0,0-5.792,1.408L42-13.792A10.935,10.935,0,0,1,47.12-15.1c3.36,0,5.376,1.7,5.376,4.992v.7a19.635,19.635,0,0,0-5.408-.7c-4.224,0-7.136,1.92-7.136,5.312v.064C39.952-1.344,43.216.384,46.256.384Zm.1-1.472c-2.5,0-4.736-1.376-4.736-3.744V-4.9c0-2.272,1.92-3.808,5.376-3.808a21.635,21.635,0,0,1,5.536.736v1.856C52.528-3.136,49.68-1.088,46.352-1.088ZM59.664,0h1.568V-9.44A5.6,5.6,0,0,1,66.9-15.264c3.3,0,5.184,2.208,5.184,5.568V0h1.568V-9.984c0-3.9-2.4-6.72-6.528-6.72a6.39,6.39,0,0,0-5.888,3.424v-3.04H59.664Zm26.5.384c3.232,0,5.312-1.888,6.72-4.032V0h1.568V-23.36H92.88V-12.8a7.85,7.85,0,0,0-6.72-3.9A8.163,8.163,0,0,0,78.224-8.16V-8.1A8.1,8.1,0,0,0,86.16.384Zm.16-1.5c-3.424,0-6.4-2.752-6.4-7.04v-.064c0-4.384,2.848-6.976,6.4-6.976a6.814,6.814,0,0,1,6.656,7.008v.064A6.835,6.835,0,0,1,86.32-1.12ZM110.352,0h1.6V-19.456l8.864,12.9h.128l8.864-12.9V0h1.664V-22.4H129.9L120.912-9.152,111.92-22.4h-1.568Zm34.656.384a8.432,8.432,0,0,0,8.416-8.544v-.064a8.344,8.344,0,0,0-8.352-8.48,8.432,8.432,0,0,0-8.416,8.544V-8.1A8.344,8.344,0,0,0,145.008.384Zm.064-1.472a6.843,6.843,0,0,1-6.72-7.072v-.064a6.733,6.733,0,0,1,6.656-7.008,6.843,6.843,0,0,1,6.72,7.072V-8.1A6.733,6.733,0,0,1,145.072-1.088ZM158.256,0h1.568V-9.44a5.6,5.6,0,0,1,5.664-5.824c3.3,0,5.184,2.208,5.184,5.568V0h1.568V-9.984c0-3.9-2.4-6.72-6.528-6.72a6.39,6.39,0,0,0-5.888,3.424v-3.04h-1.568ZM177.9-20.576h1.952V-22.72H177.9ZM178.1,0h1.568V-16.32H178.1ZM191.28.288a5.992,5.992,0,0,0,2.656-.576V-1.76a5.466,5.466,0,0,1-2.4.576c-1.888,0-3.264-.832-3.264-3.168V-14.88H194v-1.44h-5.728v-5.216H186.7v5.216h-2.368v1.44H186.7V-4.192C186.7-1.088,188.752.288,191.28.288Zm14.112.1a8.432,8.432,0,0,0,8.416-8.544v-.064a8.344,8.344,0,0,0-8.352-8.48A8.432,8.432,0,0,0,197.04-8.16V-8.1A8.344,8.344,0,0,0,205.392.384Zm.064-1.472a6.843,6.843,0,0,1-6.72-7.072v-.064a6.733,6.733,0,0,1,6.656-7.008,6.843,6.843,0,0,1,6.72,7.072V-8.1A6.733,6.733,0,0,1,205.456-1.088ZM218.64,0h1.568V-6.688c0-5.312,3.3-8.16,7.072-8.16h.16v-1.728a7.716,7.716,0,0,0-7.232,4.9v-4.64H218.64ZM-219.088,60.384a11.813,11.813,0,0,0,8.9-3.9l-1.12-1.088c-2.272,2.24-4.48,3.488-7.712,3.488-5.344,0-9.472-4.416-9.472-10.08v-.064c0-5.632,4.064-10.016,9.44-10.016a10.276,10.276,0,0,1,7.552,3.3l1.184-1.216a11.814,11.814,0,0,0-8.7-3.584,11.259,11.259,0,0,0-11.2,11.584v.064C-230.224,55.3-225.488,60.384-219.088,60.384Zm20.032,0a8.432,8.432,0,0,0,8.416-8.544v-.064a8.344,8.344,0,0,0-8.352-8.48,8.432,8.432,0,0,0-8.416,8.544V51.9A8.344,8.344,0,0,0-199.056,60.384Zm.064-1.472a6.843,6.843,0,0,1-6.72-7.072v-.064a6.733,6.733,0,0,1,6.656-7.008,6.843,6.843,0,0,1,6.72,7.072V51.9A6.733,6.733,0,0,1-198.992,58.912ZM-185.808,60h1.568V50.56a5.6,5.6,0,0,1,5.664-5.824c3.3,0,5.184,2.208,5.184,5.568V60h1.568V50.016c0-3.9-2.4-6.72-6.528-6.72a6.39,6.39,0,0,0-5.888,3.424V43.68h-1.568Zm19.616,0h1.568V50.56a5.6,5.6,0,0,1,5.664-5.824c3.3,0,5.184,2.208,5.184,5.568V60h1.568V50.016c0-3.9-2.4-6.72-6.528-6.72a6.39,6.39,0,0,0-5.888,3.424V43.68h-1.568Zm26.5.384a8.579,8.579,0,0,0,6.752-3.072l-1.088-.96a7.33,7.33,0,0,1-5.6,2.56c-3.2,0-6.112-2.368-6.4-6.432H-132.5a4.08,4.08,0,0,0,.032-.64c0-4.832-2.912-8.544-7.488-8.544-4.416,0-7.744,3.776-7.744,8.512v.064C-147.7,56.96-143.984,60.384-139.7,60.384Zm-6.336-9.312c.288-3.616,2.784-6.336,6.016-6.336,3.744,0,5.632,3.04,5.856,6.336Zm25.344,9.312a8.4,8.4,0,0,0,6.656-3.232l-1.088-.96a7.293,7.293,0,0,1-5.472,2.72,6.863,6.863,0,0,1-6.72-7.072v-.064a6.743,6.743,0,0,1,6.592-7.008,7.354,7.354,0,0,1,5.44,2.688l1.12-1.152a8.567,8.567,0,0,0-6.528-3.008,8.475,8.475,0,0,0-8.32,8.544V51.9A8.4,8.4,0,0,0-120.688,60.384Zm16.512-.1a5.992,5.992,0,0,0,2.656-.576V58.24a5.466,5.466,0,0,1-2.4.576c-1.888,0-3.264-.832-3.264-3.168V45.12h5.728V43.68h-5.728V38.464h-1.568V43.68h-2.368v1.44h2.368V55.808C-108.752,58.912-106.7,60.288-104.176,60.288Zm13.76.1a8.579,8.579,0,0,0,6.752-3.072l-1.088-.96a7.33,7.33,0,0,1-5.6,2.56c-3.2,0-6.112-2.368-6.4-6.432h13.536a4.08,4.08,0,0,0,.032-.64c0-4.832-2.912-8.544-7.488-8.544-4.416,0-7.744,3.776-7.744,8.512v.064C-98.416,56.96-94.7,60.384-90.416,60.384Zm-6.336-9.312c.288-3.616,2.784-6.336,6.016-6.336,3.744,0,5.632,3.04,5.856,6.336Zm25.024,9.312c3.232,0,5.312-1.888,6.72-4.032V60h1.568V36.64h-1.568V47.2a7.85,7.85,0,0,0-6.72-3.9,8.163,8.163,0,0,0-7.936,8.544V51.9A8.1,8.1,0,0,0-71.728,60.384Zm.16-1.5c-3.424,0-6.4-2.752-6.4-7.04v-.064c0-4.384,2.848-6.976,6.4-6.976a6.814,6.814,0,0,1,6.656,7.008v.064A6.835,6.835,0,0,1-71.568,58.88ZM-47.536,60h7.456c7.04,0,11.9-4.9,11.9-11.2v-.064c0-6.3-4.864-11.136-11.9-11.136h-7.456Zm7.456-20.864c6.24,0,10.176,4.352,10.176,9.664v.064c0,5.344-3.936,9.6-10.176,9.6h-5.792V39.136Zm24.1,21.248a8.579,8.579,0,0,0,6.752-3.072l-1.088-.96a7.33,7.33,0,0,1-5.6,2.56c-3.2,0-6.112-2.368-6.4-6.432H-8.784a4.08,4.08,0,0,0,.032-.64c0-4.832-2.912-8.544-7.488-8.544-4.416,0-7.744,3.776-7.744,8.512v.064C-23.984,56.96-20.272,60.384-15.984,60.384Zm-6.336-9.312c.288-3.616,2.784-6.336,6.016-6.336,3.744,0,5.632,3.04,5.856,6.336ZM.688,60.128H2.032L9.36,43.68H7.6L1.36,58.24-4.816,43.68H-6.64Zm12.992-20.7h1.952V37.28H13.68ZM13.872,60H15.44V43.68H13.872Zm14.944.384a8.4,8.4,0,0,0,6.656-3.232l-1.088-.96a7.293,7.293,0,0,1-5.472,2.72,6.863,6.863,0,0,1-6.72-7.072v-.064a6.743,6.743,0,0,1,6.592-7.008,7.354,7.354,0,0,1,5.44,2.688l1.12-1.152A8.567,8.567,0,0,0,28.816,43.3,8.475,8.475,0,0,0,20.5,51.84V51.9A8.4,8.4,0,0,0,28.816,60.384Zm17.472,0a8.579,8.579,0,0,0,6.752-3.072l-1.088-.96a7.33,7.33,0,0,1-5.6,2.56c-3.2,0-6.112-2.368-6.4-6.432H53.488a4.08,4.08,0,0,0,.032-.64c0-4.832-2.912-8.544-7.488-8.544-4.416,0-7.744,3.776-7.744,8.512v.064C38.288,56.96,42,60.384,46.288,60.384Zm-6.336-9.312c.288-3.616,2.784-6.336,6.016-6.336,3.744,0,5.632,3.04,5.856,6.336ZM63.376,60.32c3.136,0,5.632-1.856,5.632-4.768v-.064c0-2.88-2.752-3.84-5.376-4.576-2.336-.672-4.544-1.344-4.544-3.168V47.68c0-1.632,1.472-2.848,3.712-2.848a9.373,9.373,0,0,1,5.024,1.632l.832-1.312a11.018,11.018,0,0,0-5.792-1.792c-3.168,0-5.376,1.888-5.376,4.512v.064c0,2.912,2.944,3.712,5.6,4.48,2.272.64,4.32,1.344,4.32,3.264v.064c0,1.888-1.728,3.1-3.936,3.1A9.574,9.574,0,0,1,57.616,56.7l-.928,1.248A11.176,11.176,0,0,0,63.376,60.32Zm24.8-.192H89.52l4.9-13.984L99.28,60.128h1.344l5.984-16.448h-1.7L99.984,58.016l-4.928-14.4H93.808l-4.928,14.4L83.952,43.68h-1.76Zm23.008-20.7h1.952V37.28h-1.952ZM111.376,60h1.568V43.68h-1.568Zm13.184.288a5.992,5.992,0,0,0,2.656-.576V58.24a5.466,5.466,0,0,1-2.4.576c-1.888,0-3.264-.832-3.264-3.168V45.12h5.728V43.68h-5.728V38.464h-1.568V43.68h-2.368v1.44h2.368V55.808C119.984,58.912,122.032,60.288,124.56,60.288ZM131.92,60h1.568V50.56a5.6,5.6,0,0,1,5.664-5.824c3.3,0,5.184,2.208,5.184,5.568V60H145.9V50.016c0-3.9-2.4-6.72-6.528-6.72a6.39,6.39,0,0,0-5.888,3.424V36.64H131.92Zm29.568,0h16.1V58.464H163.152V49.472h12.832V47.936H163.152v-8.8h14.272V37.6H161.488Zm26.048.384a7.423,7.423,0,0,0,6.24-3.1V60h1.536V49.824a6.2,6.2,0,0,0-1.664-4.608,7.051,7.051,0,0,0-5.152-1.792,13.114,13.114,0,0,0-5.792,1.408l.576,1.376A10.935,10.935,0,0,1,188.4,44.9c3.36,0,5.376,1.7,5.376,4.992v.7a19.635,19.635,0,0,0-5.408-.7c-4.224,0-7.136,1.92-7.136,5.312v.064C181.232,58.656,184.5,60.384,187.536,60.384Zm.1-1.472c-2.5,0-4.736-1.376-4.736-3.744V55.1c0-2.272,1.92-3.808,5.376-3.808a21.635,21.635,0,0,1,5.536.736v1.856C193.808,56.864,190.96,58.912,187.632,58.912Zm18.592,1.408c3.136,0,5.632-1.856,5.632-4.768v-.064c0-2.88-2.752-3.84-5.376-4.576-2.336-.672-4.544-1.344-4.544-3.168V47.68c0-1.632,1.472-2.848,3.712-2.848a9.373,9.373,0,0,1,5.024,1.632l.832-1.312a11.018,11.018,0,0,0-5.792-1.792c-3.168,0-5.376,1.888-5.376,4.512v.064c0,2.912,2.944,3.712,5.6,4.48,2.272.64,4.32,1.344,4.32,3.264v.064c0,1.888-1.728,3.1-3.936,3.1a9.574,9.574,0,0,1-5.856-2.144l-.928,1.248A11.176,11.176,0,0,0,206.224,60.32Zm17.5.064a8.579,8.579,0,0,0,6.752-3.072l-1.088-.96a7.33,7.33,0,0,1-5.6,2.56c-3.2,0-6.112-2.368-6.4-6.432h13.536a4.08,4.08,0,0,0,.032-.64c0-4.832-2.912-8.544-7.488-8.544-4.416,0-7.744,3.776-7.744,8.512v.064C215.728,56.96,219.44,60.384,223.728,60.384Zm-6.336-9.312c.288-3.616,2.784-6.336,6.016-6.336,3.744,0,5.632,3.04,5.856,6.336Z" transform="translate(451 558)" fill="#333"/>
    </g>
    <g id="Group_7" data-name="Group 7" transform="translate(64 11)">
      <path id="Path_13023" data-name="Path 13023" d="M1.35,0H6.21c2.34,0,3.885-1,3.885-2.88v-.03A2.575,2.575,0,0,0,8.01-5.46,2.5,2.5,0,0,0,9.51-7.8v-.03a2.352,2.352,0,0,0-.7-1.74A3.791,3.791,0,0,0,6.06-10.5H1.35ZM7.665-7.5c0,.96-.795,1.425-1.98,1.425H3.165v-2.79H5.82c1.185,0,1.845.51,1.845,1.335ZM8.25-3.105v.03c0,.945-.765,1.44-2.025,1.44H3.165v-2.88H6.09C7.545-4.515,8.25-3.99,8.25-3.105ZM15.6.18A4.006,4.006,0,0,0,18.84-1.3L17.775-2.25A2.876,2.876,0,0,1,15.63-1.3a2.211,2.211,0,0,1-2.28-2.01h5.82c.015-.18.03-.345.03-.51,0-2.28-1.275-4.26-3.8-4.26a3.931,3.931,0,0,0-3.87,4.125v.03A3.952,3.952,0,0,0,15.6.18ZM13.335-4.515A2.143,2.143,0,0,1,15.39-6.6,2.056,2.056,0,0,1,17.4-4.515ZM21.03,0h1.815V-4.47A1.762,1.762,0,0,1,24.63-6.435c1.08,0,1.695.7,1.695,1.935V0H28.14V-5.055a2.715,2.715,0,0,0-2.82-3.03A2.871,2.871,0,0,0,22.845-6.7V-7.92H21.03ZM33.96.18A4.006,4.006,0,0,0,37.2-1.3L36.135-2.25A2.876,2.876,0,0,1,33.99-1.3a2.211,2.211,0,0,1-2.28-2.01h5.82c.015-.18.03-.345.03-.51,0-2.28-1.275-4.26-3.8-4.26A3.931,3.931,0,0,0,29.9-3.96v.03A3.952,3.952,0,0,0,33.96.18ZM31.695-4.515A2.143,2.143,0,0,1,33.75-6.6a2.056,2.056,0,0,1,2.01,2.085ZM39.795,0H41.61V-6.36h2.07v-1.5h-2.1V-8.3c0-.825.36-1.2,1.05-1.2a3.189,3.189,0,0,1,1.065.195v-1.53a4.856,4.856,0,0,0-1.47-.21,2.4,2.4,0,0,0-1.785.63,2.677,2.677,0,0,0-.645,1.95v.585h-1V-6.36h1Zm5.34,0H46.95V-7.92H45.135ZM45.06-9.135h1.95V-10.86H45.06ZM51.975.135a3.138,3.138,0,0,0,1.635-.4V-1.755a2.44,2.44,0,0,1-1.125.27.864.864,0,0,1-.975-.99V-6.36h2.13V-7.92H51.51v-2.175H49.695V-7.92H48.69v1.56h1.005v4.17A2.03,2.03,0,0,0,51.975.135ZM58.2.15c1.65,0,2.94-.825,2.94-2.49v-.03c0-1.425-1.305-1.95-2.46-2.31C57.75-4.98,56.9-5.22,56.9-5.8v-.03c0-.45.405-.78,1.11-.78a4.6,4.6,0,0,1,2.235.75l.72-1.29a5.491,5.491,0,0,0-2.91-.9c-1.575,0-2.82.915-2.82,2.415v.03c0,1.515,1.305,2,2.475,2.325.93.285,1.77.495,1.77,1.11v.03c0,.525-.45.855-1.23.855a4.481,4.481,0,0,1-2.6-.975l-.81,1.23A5.564,5.564,0,0,0,58.2.15ZM71.265.18A4.141,4.141,0,0,0,75.51-3.945v-.03a4.1,4.1,0,0,0-4.215-4.11,4.14,4.14,0,0,0-4.23,4.14v.03A4.1,4.1,0,0,0,71.265.18Zm.03-1.59A2.441,2.441,0,0,1,68.88-3.945v-.03a2.377,2.377,0,0,1,2.385-2.52,2.448,2.448,0,0,1,2.43,2.55v.03A2.376,2.376,0,0,1,71.295-1.41ZM77.76,0h1.815V-6.36h2.07v-1.5h-2.1V-8.3c0-.825.36-1.2,1.05-1.2A3.189,3.189,0,0,1,81.66-9.3v-1.53a4.856,4.856,0,0,0-1.47-.21,2.4,2.4,0,0,0-1.785.63,2.677,2.677,0,0,0-.645,1.95v.585h-1V-6.36h1Zm9.945,0h7.86V-1.65H89.55V-4.47h5.265V-6.12H89.55V-8.85h5.94V-10.5H87.705ZM98.94-7.92H96.96l2.79,3.885L96.855,0H98.79l1.935-2.82L102.675,0h1.98l-2.91-4.05,2.79-3.87H102.6l-1.83,2.655ZM108.9.135a3.138,3.138,0,0,0,1.635-.4V-1.755a2.44,2.44,0,0,1-1.125.27.864.864,0,0,1-.975-.99V-6.36h2.13V-7.92h-2.13v-2.175H106.62V-7.92h-1v1.56h1v4.17A2.03,2.03,0,0,0,108.9.135ZM112.41,0h1.815V-3.015c0-2.1,1.11-3.135,2.7-3.135h.105V-8.07a2.808,2.808,0,0,0-2.805,1.935V-7.92H112.41Zm9.555.18a4.006,4.006,0,0,0,3.24-1.485L124.14-2.25A2.876,2.876,0,0,1,122-1.3a2.211,2.211,0,0,1-2.28-2.01h5.82c.015-.18.03-.345.03-.51,0-2.28-1.275-4.26-3.8-4.26A3.931,3.931,0,0,0,117.9-3.96v.03A3.952,3.952,0,0,0,121.965.18ZM119.7-4.515A2.143,2.143,0,0,1,121.755-6.6a2.056,2.056,0,0,1,2.01,2.085ZM127.395,0h1.815V-4.47a1.73,1.73,0,0,1,1.7-1.965c1.005,0,1.6.69,1.6,1.92V0h1.815V-4.47c0-1.275.705-1.965,1.7-1.965,1.02,0,1.6.675,1.6,1.935V0h1.815V-5.055c0-1.935-1.05-3.03-2.775-3.03a3.186,3.186,0,0,0-2.67,1.395,2.513,2.513,0,0,0-2.37-1.395A2.838,2.838,0,0,0,129.21-6.72v-1.2h-1.815Zm17.88.18a4.006,4.006,0,0,0,3.24-1.485L147.45-2.25a2.876,2.876,0,0,1-2.145.945,2.211,2.211,0,0,1-2.28-2.01h5.82c.015-.18.03-.345.03-.51,0-2.28-1.275-4.26-3.795-4.26a3.931,3.931,0,0,0-3.87,4.125v.03A3.952,3.952,0,0,0,145.275.18ZM143.01-4.515A2.143,2.143,0,0,1,145.065-6.6a2.056,2.056,0,0,1,2.01,2.085ZM155.415,0h1.815V-7.47L163.02,0h1.545V-10.5H162.75v7.26l-5.625-7.26h-1.71Zm15.27.18a4.006,4.006,0,0,0,3.24-1.485L172.86-2.25a2.876,2.876,0,0,1-2.145.945,2.211,2.211,0,0,1-2.28-2.01h5.82c.015-.18.03-.345.03-.51,0-2.28-1.275-4.26-3.795-4.26a3.931,3.931,0,0,0-3.87,4.125v.03A3.952,3.952,0,0,0,170.685.18ZM168.42-4.515A2.143,2.143,0,0,1,170.475-6.6a2.056,2.056,0,0,1,2.01,2.085ZM178.77.135a3.138,3.138,0,0,0,1.635-.4V-1.755a2.44,2.44,0,0,1-1.125.27.864.864,0,0,1-.975-.99V-6.36h2.13V-7.92h-2.13v-2.175H176.49V-7.92h-1.005v1.56h1.005v4.17A2.03,2.03,0,0,0,178.77.135ZM184.185.06h1.62l1.785-5.415L189.36.06h1.635l2.6-7.98h-1.83l-1.62,5.43-1.755-5.46h-1.56L185.07-2.49l-1.59-5.43h-1.86Zm14.4.12a4.141,4.141,0,0,0,4.245-4.125v-.03a4.1,4.1,0,0,0-4.215-4.11,4.14,4.14,0,0,0-4.23,4.14v.03A4.1,4.1,0,0,0,198.585.18Zm.03-1.59A2.441,2.441,0,0,1,196.2-3.945v-.03a2.377,2.377,0,0,1,2.385-2.52,2.448,2.448,0,0,1,2.43,2.55v.03A2.376,2.376,0,0,1,198.615-1.41ZM204.675,0h1.815V-3.015c0-2.1,1.11-3.135,2.7-3.135h.1V-8.07a2.808,2.808,0,0,0-2.8,1.935V-7.92h-1.815Zm6.195,0h1.815V-2.265l1.125-1.17L216.15,0h2.13l-3.255-4.695,3.15-3.225H215.97l-3.285,3.51v-6.54H210.87Zm11.445.15c1.65,0,2.94-.825,2.94-2.49v-.03c0-1.425-1.3-1.95-2.46-2.31-.93-.3-1.785-.54-1.785-1.125v-.03c0-.45.4-.78,1.11-.78a4.6,4.6,0,0,1,2.235.75l.72-1.29a5.491,5.491,0,0,0-2.91-.9c-1.575,0-2.82.915-2.82,2.415v.03c0,1.515,1.305,2,2.475,2.325.93.285,1.77.495,1.77,1.11v.03c0,.525-.45.855-1.23.855a4.481,4.481,0,0,1-2.6-.975l-.81,1.23A5.564,5.564,0,0,0,222.315.15ZM231.93,0h1.845V-10.5H231.93Zm9.66.18A5.38,5.38,0,0,0,247.1-5.25v-.03a5.33,5.33,0,0,0-5.475-5.4,5.38,5.38,0,0,0-5.505,5.43v.03A5.33,5.33,0,0,0,241.59.18Zm.03-1.71a3.585,3.585,0,0,1-3.57-3.72v-.03a3.548,3.548,0,0,1,3.54-3.7,3.6,3.6,0,0,1,3.57,3.735v.03A3.535,3.535,0,0,1,241.62-1.53ZM251.34,0h1.86V-8.79h3.33V-10.5h-8.52v1.71h3.33Zm15.315.15c2.205,0,3.75-1.17,3.75-3.135v-.03c0-1.74-1.14-2.535-3.36-3.075-2.025-.48-2.505-.84-2.505-1.65v-.03c0-.69.63-1.245,1.71-1.245a4.769,4.769,0,0,1,2.85,1.08l.99-1.395a5.82,5.82,0,0,0-3.81-1.32c-2.085,0-3.585,1.245-3.585,3.045v.03c0,1.935,1.26,2.595,3.495,3.135,1.95.45,2.37.855,2.37,1.605v.03c0,.78-.72,1.32-1.86,1.32a4.863,4.863,0,0,1-3.315-1.365l-1.11,1.32A6.468,6.468,0,0,0,266.655.15Zm9.48.03a4.141,4.141,0,0,0,4.245-4.125v-.03a4.1,4.1,0,0,0-4.215-4.11,4.14,4.14,0,0,0-4.23,4.14v.03A4.1,4.1,0,0,0,276.135.18Zm.03-1.59a2.441,2.441,0,0,1-2.415-2.535v-.03a2.377,2.377,0,0,1,2.385-2.52,2.448,2.448,0,0,1,2.43,2.55v.03A2.376,2.376,0,0,1,276.165-1.41ZM282.33,0h1.815V-10.95H282.33Zm6.915.165a2.85,2.85,0,0,0,2.475-1.4V0h1.83V-7.92h-1.83v4.47a1.749,1.749,0,0,1-1.785,1.95c-1.08,0-1.7-.69-1.7-1.92v-4.5h-1.815v5.04A2.72,2.72,0,0,0,289.245.165Zm9.225-.03a3.138,3.138,0,0,0,1.635-.4V-1.755a2.44,2.44,0,0,1-1.125.27.864.864,0,0,1-.975-.99V-6.36h2.13V-7.92H298v-2.175H296.19V-7.92h-1.005v1.56h1.005v4.17A2.03,2.03,0,0,0,298.47.135Zm3.54-9.27h1.95V-10.86h-1.95ZM302.085,0H303.9V-7.92h-1.815Zm7.95.18a4.141,4.141,0,0,0,4.245-4.125v-.03a4.1,4.1,0,0,0-4.215-4.11,4.14,4.14,0,0,0-4.23,4.14v.03A4.1,4.1,0,0,0,310.035.18Zm.03-1.59a2.441,2.441,0,0,1-2.415-2.535v-.03a2.377,2.377,0,0,1,2.385-2.52,2.448,2.448,0,0,1,2.43,2.55v.03A2.376,2.376,0,0,1,310.065-1.41ZM316.125,0h1.815V-4.47a1.762,1.762,0,0,1,1.785-1.965c1.08,0,1.7.7,1.7,1.935V0h1.815V-5.055a2.715,2.715,0,0,0-2.82-3.03A2.871,2.871,0,0,0,317.94-6.7V-7.92h-1.815ZM328.14.15c1.65,0,2.94-.825,2.94-2.49v-.03c0-1.425-1.305-1.95-2.46-2.31-.93-.3-1.785-.54-1.785-1.125v-.03c0-.45.4-.78,1.11-.78a4.6,4.6,0,0,1,2.235.75l.72-1.29a5.49,5.49,0,0,0-2.91-.9c-1.575,0-2.82.915-2.82,2.415v.03c0,1.515,1.3,2,2.475,2.325.93.285,1.77.495,1.77,1.11v.03c0,.525-.45.855-1.23.855a4.481,4.481,0,0,1-2.6-.975l-.81,1.23A5.564,5.564,0,0,0,328.14.15Zm4.755-6.015h1.995V-7.92h-1.995Zm0,5.865h1.995V-2.07h-1.995Z" transform="translate(174 675)" fill="#666"/>
      <g id="Group_6" data-name="Group 6">
        <g id="Group_10217" data-name="Group 10217" transform="translate(93.117 455)">
          <circle id="Ellipse_436" data-name="Ellipse 436" cx="10" cy="10" r="10" transform="translate(76.883 263)" fill="#8774d4"/>
          <g id="Group_7550-2" data-name="Group 7550" transform="translate(81 286.949)">
            <g id="Group_7549-2" data-name="Group 7549" transform="translate(0 -20)" clip-path="url(#clip-path-2)">
              <path id="Path_5663-2" data-name="Path 5663" d="M-5-25H13.076V-6.924H-5Z" transform="translate(1.987 21.987)" fill="#fff"/>
            </g>
          </g>
        </g>
        <g id="Group_10217-2" data-name="Group 10217" transform="translate(93.117 507)">
          <circle id="Ellipse_436-2" data-name="Ellipse 436" cx="10" cy="10" r="10" transform="translate(76.883 263)" fill="#8774d4"/>
          <g id="Group_7550-3" data-name="Group 7550" transform="translate(81 286.949)">
            <g id="Group_7549-3" data-name="Group 7549" transform="translate(0 -20)" clip-path="url(#clip-path-2)">
              <path id="Path_5663-3" data-name="Path 5663" d="M-5-25H13.076V-6.924H-5Z" transform="translate(1.987 21.987)" fill="#fff"/>
            </g>
          </g>
        </g>
        <g id="Group_10217-3" data-name="Group 10217" transform="translate(93.117 559)">
          <circle id="Ellipse_436-3" data-name="Ellipse 436" cx="10" cy="10" r="10" transform="translate(76.883 263)" fill="#8774d4"/>
          <g id="Group_7550-4" data-name="Group 7550" transform="translate(81 286.949)">
            <g id="Group_7549-4" data-name="Group 7549" transform="translate(0 -20)" clip-path="url(#clip-path-2)">
              <path id="Path_5663-4" data-name="Path 5663" d="M-5-25H13.076V-6.924H-5Z" transform="translate(1.987 21.987)" fill="#fff"/>
            </g>
          </g>
        </g>
        <path id="Path_13024" data-name="Path 13024" d="M6.36.18a5.38,5.38,0,0,0,5.5-5.43v-.03a5.33,5.33,0,0,0-5.475-5.4,5.38,5.38,0,0,0-5.5,5.43v.03A5.33,5.33,0,0,0,6.36.18Zm.03-1.71A3.585,3.585,0,0,1,2.82-5.25v-.03a3.548,3.548,0,0,1,3.54-3.7A3.6,3.6,0,0,1,9.93-5.25v.03A3.535,3.535,0,0,1,6.39-1.53Zm7.5,3.93H15.7V-1.23a3.235,3.235,0,0,0,2.7,1.4,3.789,3.789,0,0,0,3.675-4.11v-.03a3.789,3.789,0,0,0-3.675-4.11A3.17,3.17,0,0,0,15.7-6.6V-7.92H13.89Zm4.08-3.81a2.388,2.388,0,0,1-2.31-2.535v-.03A2.388,2.388,0,0,1,17.97-6.51a2.345,2.345,0,0,1,2.265,2.535v.03A2.319,2.319,0,0,1,17.97-1.41ZM26.61.135a3.138,3.138,0,0,0,1.635-.4V-1.755a2.44,2.44,0,0,1-1.125.27.864.864,0,0,1-.975-.99V-6.36h2.13V-7.92h-2.13v-2.175H24.33V-7.92h-1v1.56h1v4.17A2.03,2.03,0,0,0,26.61.135Zm3.54-9.27H32.1V-10.86H30.15ZM30.225,0H32.04V-7.92H30.225ZM34.41,0h1.815V-4.47a1.73,1.73,0,0,1,1.7-1.965c1,0,1.6.69,1.6,1.92V0H41.34V-4.47c0-1.275.7-1.965,1.695-1.965,1.02,0,1.6.675,1.6,1.935V0h1.815V-5.055c0-1.935-1.05-3.03-2.775-3.03A3.186,3.186,0,0,0,41.01-6.69a2.513,2.513,0,0,0-2.37-1.395A2.838,2.838,0,0,0,36.225-6.72v-1.2H34.41ZM48.69-9.135h1.95V-10.86H48.69ZM48.765,0H50.58V-7.92H48.765ZM52.59,0h6.885V-1.485H54.9l4.575-5.19V-7.92h-6.72v1.485h4.41L52.59-1.245ZM64.755.18A4.006,4.006,0,0,0,68-1.3L66.93-2.25a2.876,2.876,0,0,1-2.145.945,2.211,2.211,0,0,1-2.28-2.01h5.82c.015-.18.03-.345.03-.51,0-2.28-1.275-4.26-3.8-4.26A3.931,3.931,0,0,0,60.69-3.96v.03A3.952,3.952,0,0,0,64.755.18ZM62.49-4.515A2.143,2.143,0,0,1,64.545-6.6a2.056,2.056,0,0,1,2.01,2.085ZM73.455.165a3.17,3.17,0,0,0,2.7-1.485V0H77.97V-10.95H76.155v4.26a3.24,3.24,0,0,0-2.7-1.395,3.78,3.78,0,0,0-3.675,4.11v.03A3.8,3.8,0,0,0,73.455.165ZM73.89-1.41a2.356,2.356,0,0,1-2.28-2.535v-.03A2.322,2.322,0,0,1,73.89-6.51a2.377,2.377,0,0,1,2.295,2.535v.03A2.386,2.386,0,0,1,73.89-1.41ZM85.155,0H86.97V-6.36h2.07v-1.5h-2.1V-8.3c0-.825.36-1.2,1.05-1.2a3.189,3.189,0,0,1,1.065.195v-1.53a4.856,4.856,0,0,0-1.47-.21,2.4,2.4,0,0,0-1.785.63,2.677,2.677,0,0,0-.645,1.95v.585h-1V-6.36h1ZM94,.18A4.141,4.141,0,0,0,98.25-3.945v-.03a4.1,4.1,0,0,0-4.215-4.11,4.14,4.14,0,0,0-4.23,4.14v.03A4.1,4.1,0,0,0,94,.18Zm.03-1.59A2.441,2.441,0,0,1,91.62-3.945v-.03A2.377,2.377,0,0,1,94-6.495a2.448,2.448,0,0,1,2.43,2.55v.03A2.376,2.376,0,0,1,94.035-1.41ZM100.1,0h1.815V-3.015c0-2.1,1.11-3.135,2.7-3.135h.105V-8.07a2.808,2.808,0,0,0-2.805,1.935V-7.92H100.1ZM113.07.165A3.219,3.219,0,0,0,115.65-.99V0h1.77V-4.695a3.287,3.287,0,0,0-.855-2.445,3.549,3.549,0,0,0-2.625-.885,6.758,6.758,0,0,0-2.985.645l.48,1.425A5.514,5.514,0,0,1,113.7-6.45c1.275,0,1.965.6,1.965,1.725v.2a6.616,6.616,0,0,0-2.13-.33c-1.935,0-3.27.84-3.27,2.55v.03A2.53,2.53,0,0,0,113.07.165Zm.51-1.32c-.87,0-1.545-.435-1.545-1.2v-.03c0-.825.69-1.32,1.86-1.32a5.032,5.032,0,0,1,1.8.315v.54C115.695-1.845,114.78-1.155,113.58-1.155Zm9.54,3.585a4.458,4.458,0,0,0,3.255-1.065A4.052,4.052,0,0,0,127.38-1.62v-6.3h-1.815v1.185a3.417,3.417,0,0,0-2.775-1.35,3.572,3.572,0,0,0-3.6,3.72v.03a3.559,3.559,0,0,0,3.6,3.705,3.318,3.318,0,0,0,2.79-1.455v.615a2.214,2.214,0,0,1-2.5,2.43,5.191,5.191,0,0,1-2.82-.84l-.675,1.365A6.823,6.823,0,0,0,123.12,2.43Zm.15-4.605a2.157,2.157,0,0,1-2.25-2.175v-.03a2.14,2.14,0,0,1,2.25-2.175A2.212,2.212,0,0,1,125.6-4.38v.03A2.212,2.212,0,0,1,123.27-2.175Zm6.42-6.96h1.95V-10.86h-1.95ZM129.765,0h1.815V-7.92h-1.815Zm4.185,0h1.815V-4.47a1.762,1.762,0,0,1,1.785-1.965c1.08,0,1.695.7,1.695,1.935V0h1.815V-5.055a2.715,2.715,0,0,0-2.82-3.03,2.871,2.871,0,0,0-2.475,1.38V-7.92H133.95Zm12.825,2.43a4.458,4.458,0,0,0,3.255-1.065,4.052,4.052,0,0,0,1.005-2.985v-6.3H149.22v1.185a3.417,3.417,0,0,0-2.775-1.35,3.572,3.572,0,0,0-3.6,3.72v.03a3.559,3.559,0,0,0,3.6,3.705,3.318,3.318,0,0,0,2.79-1.455v.615A2.214,2.214,0,0,1,146.73.96a5.191,5.191,0,0,1-2.82-.84l-.675,1.365A6.823,6.823,0,0,0,146.775,2.43Zm.15-4.605a2.157,2.157,0,0,1-2.25-2.175v-.03a2.14,2.14,0,0,1,2.25-2.175A2.212,2.212,0,0,1,149.25-4.38v.03A2.212,2.212,0,0,1,146.925-2.175ZM152.88,2.19a2.2,2.2,0,0,0,2.31-2.505V-2.07H153.2V0h.78c.06.765-.375,1.23-1.29,1.41ZM161.85,0h1.815V-4.47a1.73,1.73,0,0,1,1.695-1.965c1.005,0,1.605.69,1.605,1.92V0h1.815V-4.47c0-1.275.705-1.965,1.7-1.965,1.02,0,1.6.675,1.6,1.935V0H173.9V-5.055c0-1.935-1.05-3.03-2.775-3.03a3.186,3.186,0,0,0-2.67,1.395,2.513,2.513,0,0,0-2.37-1.395,2.838,2.838,0,0,0-2.415,1.365v-1.2H161.85Zm14.28-9.135h1.95V-10.86h-1.95ZM176.205,0h1.815V-7.92h-1.815Zm6.9.15c1.65,0,2.94-.825,2.94-2.49v-.03c0-1.425-1.3-1.95-2.46-2.31-.93-.3-1.785-.54-1.785-1.125v-.03c0-.45.4-.78,1.11-.78a4.6,4.6,0,0,1,2.235.75l.72-1.29a5.491,5.491,0,0,0-2.91-.9c-1.575,0-2.82.915-2.82,2.415v.03c0,1.515,1.305,2,2.475,2.325.93.285,1.77.495,1.77,1.11v.03c0,.525-.45.855-1.23.855a4.481,4.481,0,0,1-2.6-.975l-.81,1.23A5.564,5.564,0,0,0,183.1.15Zm7.365,0c1.65,0,2.94-.825,2.94-2.49v-.03c0-1.425-1.3-1.95-2.46-2.31-.93-.3-1.785-.54-1.785-1.125v-.03c0-.45.4-.78,1.11-.78a4.6,4.6,0,0,1,2.235.75l.72-1.29a5.491,5.491,0,0,0-2.91-.9c-1.575,0-2.82.915-2.82,2.415v.03c0,1.515,1.305,2,2.475,2.325.93.285,1.77.495,1.77,1.11v.03c0,.525-.45.855-1.23.855a4.481,4.481,0,0,1-2.6-.975l-.81,1.23A5.564,5.564,0,0,0,190.47.15Zm4.83-9.285h1.95V-10.86H195.3ZM195.375,0h1.815V-7.92h-1.815Zm7.95.18a4.141,4.141,0,0,0,4.245-4.125v-.03a4.1,4.1,0,0,0-4.215-4.11,4.14,4.14,0,0,0-4.23,4.14v.03A4.1,4.1,0,0,0,203.325.18Zm.03-1.59a2.441,2.441,0,0,1-2.415-2.535v-.03a2.377,2.377,0,0,1,2.385-2.52,2.448,2.448,0,0,1,2.43,2.55v.03A2.376,2.376,0,0,1,203.355-1.41ZM209.415,0h1.815V-4.47a1.762,1.762,0,0,1,1.785-1.965c1.08,0,1.695.7,1.695,1.935V0h1.815V-5.055a2.715,2.715,0,0,0-2.82-3.03A2.871,2.871,0,0,0,211.23-6.7V-7.92h-1.815Zm17.46.18a4.007,4.007,0,0,0,3.24-1.485l-1.095-1.08a2.772,2.772,0,0,1-2.055.975,2.4,2.4,0,0,1-2.37-2.535v-.03a2.389,2.389,0,0,1,2.295-2.52,2.658,2.658,0,0,1,2.04.99l1.14-1.215A4,4,0,0,0,226.9-8.085a4.088,4.088,0,0,0-4.125,4.14v.03A4.044,4.044,0,0,0,226.875.18Zm4.9-.18H233.6V-3.015c0-2.1,1.11-3.135,2.7-3.135h.1V-8.07a2.808,2.808,0,0,0-2.8,1.935V-7.92H231.78Zm6.225-9.135h1.95V-10.86h-1.95ZM238.08,0H239.9V-7.92H238.08Zm6.84.135a3.138,3.138,0,0,0,1.635-.4V-1.755a2.44,2.44,0,0,1-1.125.27.864.864,0,0,1-.975-.99V-6.36h2.13V-7.92h-2.13v-2.175H242.64V-7.92h-1.005v1.56h1.005v4.17A2.03,2.03,0,0,0,244.92.135Zm3.54-9.27h1.95V-10.86h-1.95ZM248.535,0h1.815V-7.92h-1.815Zm7.845.18A4.007,4.007,0,0,0,259.62-1.3l-1.1-1.08a2.772,2.772,0,0,1-2.055.975,2.4,2.4,0,0,1-2.37-2.535v-.03a2.389,2.389,0,0,1,2.295-2.52,2.658,2.658,0,0,1,2.04.99l1.14-1.215a4,4,0,0,0-3.165-1.365,4.088,4.088,0,0,0-4.125,4.14v.03A4.044,4.044,0,0,0,256.38.18Zm7.185-.015a3.219,3.219,0,0,0,2.58-1.155V0h1.77V-4.695a3.287,3.287,0,0,0-.855-2.445,3.549,3.549,0,0,0-2.625-.885,6.758,6.758,0,0,0-2.985.645l.48,1.425a5.514,5.514,0,0,1,2.265-.495c1.275,0,1.965.6,1.965,1.725v.2a6.617,6.617,0,0,0-2.13-.33c-1.935,0-3.27.84-3.27,2.55v.03A2.53,2.53,0,0,0,263.565.165Zm.51-1.32c-.87,0-1.545-.435-1.545-1.2v-.03c0-.825.69-1.32,1.86-1.32a5.032,5.032,0,0,1,1.8.315v.54C266.19-1.845,265.275-1.155,264.075-1.155ZM270.2,0h1.815V-10.95H270.2Zm10.59.06h1.62l1.785-5.415L285.96.06H287.6l2.6-7.98h-1.83l-1.62,5.43-1.755-5.46h-1.56L281.67-2.49l-1.59-5.43h-1.86Zm11.04-9.2h1.95V-10.86h-1.95ZM291.9,0h1.815V-7.92H291.9Zm4.185,0H297.9V-3.015c0-2.1,1.11-3.135,2.7-3.135h.105V-8.07A2.808,2.808,0,0,0,297.9-6.135V-7.92h-1.815Zm9.555.18A4.006,4.006,0,0,0,308.88-1.3l-1.065-.945a2.876,2.876,0,0,1-2.145.945,2.211,2.211,0,0,1-2.28-2.01h5.82c.015-.18.03-.345.03-.51,0-2.28-1.275-4.26-3.795-4.26a3.931,3.931,0,0,0-3.87,4.125v.03A3.952,3.952,0,0,0,305.64.18Zm-2.265-4.695A2.143,2.143,0,0,1,305.43-6.6a2.056,2.056,0,0,1,2.01,2.085ZM314.34.165a3.17,3.17,0,0,0,2.7-1.485V0h1.815V-10.95H317.04v4.26a3.24,3.24,0,0,0-2.7-1.395,3.78,3.78,0,0,0-3.675,4.11v.03A3.8,3.8,0,0,0,314.34.165Zm.435-1.575a2.356,2.356,0,0,1-2.28-2.535v-.03a2.322,2.322,0,0,1,2.28-2.535,2.377,2.377,0,0,1,2.3,2.535v.03A2.386,2.386,0,0,1,314.775-1.41ZM328.9.165a3.17,3.17,0,0,0,2.7-1.485V0h1.815V-10.95H331.6v4.26a3.24,3.24,0,0,0-2.7-1.395,3.78,3.78,0,0,0-3.675,4.11v.03A3.8,3.8,0,0,0,328.9.165Zm.435-1.575a2.356,2.356,0,0,1-2.28-2.535v-.03a2.322,2.322,0,0,1,2.28-2.535,2.377,2.377,0,0,1,2.3,2.535v.03A2.386,2.386,0,0,1,329.34-1.41ZM339.33.18A4.006,4.006,0,0,0,342.57-1.3l-1.065-.945a2.876,2.876,0,0,1-2.145.945,2.211,2.211,0,0,1-2.28-2.01h5.82c.015-.18.03-.345.03-.51,0-2.28-1.275-4.26-3.795-4.26a3.931,3.931,0,0,0-3.87,4.125v.03A3.952,3.952,0,0,0,339.33.18Zm-2.265-4.695A2.143,2.143,0,0,1,339.12-6.6a2.056,2.056,0,0,1,2.01,2.085ZM346.89.06h1.635l3.24-7.98h-1.9L347.715-2.1l-2.13-5.82h-1.95Zm6.45-9.2h1.95V-10.86h-1.95ZM353.415,0h1.815V-7.92h-1.815Zm7.845.18A4.007,4.007,0,0,0,364.5-1.3l-1.1-1.08a2.772,2.772,0,0,1-2.055.975,2.4,2.4,0,0,1-2.37-2.535v-.03a2.389,2.389,0,0,1,2.3-2.52,2.658,2.658,0,0,1,2.04.99l1.14-1.215a4,4,0,0,0-3.165-1.365,4.088,4.088,0,0,0-4.125,4.14v.03A4.044,4.044,0,0,0,361.26.18Zm8.31,0A4.006,4.006,0,0,0,372.81-1.3l-1.065-.945A2.876,2.876,0,0,1,369.6-1.3a2.211,2.211,0,0,1-2.28-2.01h5.82c.015-.18.03-.345.03-.51,0-2.28-1.275-4.26-3.795-4.26A3.931,3.931,0,0,0,365.5-3.96v.03A3.952,3.952,0,0,0,369.57.18ZM367.3-4.515A2.143,2.143,0,0,1,369.36-6.6a2.056,2.056,0,0,1,2.01,2.085ZM377.715.15c1.65,0,2.94-.825,2.94-2.49v-.03c0-1.425-1.305-1.95-2.46-2.31-.93-.3-1.785-.54-1.785-1.125v-.03c0-.45.4-.78,1.11-.78a4.6,4.6,0,0,1,2.235.75l.72-1.29a5.49,5.49,0,0,0-2.91-.9c-1.575,0-2.82.915-2.82,2.415v.03c0,1.515,1.3,2,2.475,2.325.93.285,1.77.495,1.77,1.11v.03c0,.525-.45.855-1.23.855a4.481,4.481,0,0,1-2.6-.975l-.81,1.23A5.564,5.564,0,0,0,377.715.15ZM6.225,52.18a5.418,5.418,0,0,0,4.26-1.86L9.3,49.12a4.1,4.1,0,0,1-3.015,1.35A3.538,3.538,0,0,1,2.82,46.75v-.03a3.534,3.534,0,0,1,3.465-3.705,4.176,4.176,0,0,1,2.94,1.305l1.185-1.365A5.473,5.473,0,0,0,6.3,41.32,5.313,5.313,0,0,0,.885,46.75v.03A5.281,5.281,0,0,0,6.225,52.18Zm9.6,0a4.141,4.141,0,0,0,4.245-4.125v-.03a4.1,4.1,0,0,0-4.215-4.11,4.14,4.14,0,0,0-4.23,4.14v.03A4.1,4.1,0,0,0,15.825,52.18Zm.03-1.59a2.441,2.441,0,0,1-2.415-2.535v-.03a2.377,2.377,0,0,1,2.385-2.52,2.448,2.448,0,0,1,2.43,2.55v.03A2.376,2.376,0,0,1,15.855,50.59ZM21.915,52H23.73V47.53a1.73,1.73,0,0,1,1.695-1.965c1.005,0,1.6.69,1.6,1.92V52h1.815V47.53c0-1.275.7-1.965,1.7-1.965,1.02,0,1.6.675,1.6,1.935V52H33.96V46.945c0-1.935-1.05-3.03-2.775-3.03a3.186,3.186,0,0,0-2.67,1.4,2.513,2.513,0,0,0-2.37-1.4A2.838,2.838,0,0,0,23.73,45.28v-1.2H21.915Zm14.25,2.4H37.98V50.77a3.235,3.235,0,0,0,2.7,1.4,3.789,3.789,0,0,0,3.675-4.11v-.03a3.789,3.789,0,0,0-3.675-4.11,3.17,3.17,0,0,0-2.7,1.485V44.08H36.165Zm4.08-3.81a2.388,2.388,0,0,1-2.31-2.535v-.03a2.388,2.388,0,0,1,2.31-2.535,2.345,2.345,0,0,1,2.265,2.535v.03A2.319,2.319,0,0,1,40.245,50.59ZM46.335,52H48.15V41.05H46.335Zm7.815.18a4.006,4.006,0,0,0,3.24-1.485l-1.065-.945a2.876,2.876,0,0,1-2.145.945,2.211,2.211,0,0,1-2.28-2.01h5.82c.015-.18.03-.345.03-.51,0-2.28-1.275-4.26-3.795-4.26a3.931,3.931,0,0,0-3.87,4.125v.03A3.952,3.952,0,0,0,54.15,52.18Zm-2.265-4.695A2.143,2.143,0,0,1,53.94,45.4a2.056,2.056,0,0,1,2.01,2.085ZM59.58,52h1.815V47.53a1.73,1.73,0,0,1,1.7-1.965c1.005,0,1.6.69,1.6,1.92V52H66.51V47.53c0-1.275.705-1.965,1.7-1.965,1.02,0,1.6.675,1.6,1.935V52h1.815V46.945c0-1.935-1.05-3.03-2.775-3.03a3.186,3.186,0,0,0-2.67,1.4,2.513,2.513,0,0,0-2.37-1.4,2.838,2.838,0,0,0-2.415,1.365v-1.2H59.58Zm17.88.18a4.006,4.006,0,0,0,3.24-1.485l-1.065-.945a2.876,2.876,0,0,1-2.145.945,2.211,2.211,0,0,1-2.28-2.01h5.82c.015-.18.03-.345.03-.51,0-2.28-1.275-4.26-3.8-4.26A3.931,3.931,0,0,0,73.4,48.04v.03A3.952,3.952,0,0,0,77.46,52.18Zm-2.265-4.695A2.143,2.143,0,0,1,77.25,45.4a2.056,2.056,0,0,1,2.01,2.085ZM82.89,52h1.815V47.53a1.762,1.762,0,0,1,1.785-1.965c1.08,0,1.695.705,1.695,1.935V52H90V46.945a2.715,2.715,0,0,0-2.82-3.03,2.871,2.871,0,0,0-2.475,1.38V44.08H82.89Zm11.955.135a3.138,3.138,0,0,0,1.635-.4V50.245a2.44,2.44,0,0,1-1.125.27.864.864,0,0,1-.975-.99V45.64h2.13V44.08H94.38V41.9H92.565V44.08h-1v1.56h1v4.17A2.03,2.03,0,0,0,94.845,52.135Zm5.79.03a3.219,3.219,0,0,0,2.58-1.155V52h1.77V47.305a3.287,3.287,0,0,0-.855-2.445,3.549,3.549,0,0,0-2.625-.885,6.758,6.758,0,0,0-2.985.645L99,46.045a5.514,5.514,0,0,1,2.265-.495c1.275,0,1.965.6,1.965,1.725v.195a6.616,6.616,0,0,0-2.13-.33c-1.935,0-3.27.84-3.27,2.55v.03A2.53,2.53,0,0,0,100.635,52.165Zm.51-1.32c-.87,0-1.545-.435-1.545-1.2v-.03c0-.825.69-1.32,1.86-1.32a5.032,5.032,0,0,1,1.8.315v.54C103.26,50.155,102.345,50.845,101.145,50.845ZM107.16,52h1.815V48.985c0-2.1,1.11-3.135,2.7-3.135h.105V43.93a2.808,2.808,0,0,0-2.805,1.935V44.08H107.16Zm9.63-2.04-2.235-5.88H112.6l3.3,7.935c-.3.675-.615.9-1.125.9a2.235,2.235,0,0,1-1.065-.3l-.615,1.35a3.74,3.74,0,0,0,1.875.48c1.275,0,1.98-.6,2.61-2.22l3.15-8.145h-1.89Zm12.66,2.175a3.138,3.138,0,0,0,1.635-.4V50.245a2.44,2.44,0,0,1-1.125.27.864.864,0,0,1-.975-.99V45.64h2.13V44.08h-2.13V41.9H127.17V44.08h-1v1.56h1v4.17A2.03,2.03,0,0,0,129.45,52.135Zm7.05.045a4.141,4.141,0,0,0,4.245-4.125v-.03a4.224,4.224,0,0,0-8.445.03v.03A4.1,4.1,0,0,0,136.5,52.18Zm.03-1.59a2.441,2.441,0,0,1-2.415-2.535v-.03a2.377,2.377,0,0,1,2.385-2.52,2.448,2.448,0,0,1,2.43,2.55v.03A2.376,2.376,0,0,1,136.53,50.59Zm14.22,1.59a4.007,4.007,0,0,0,3.24-1.485l-1.095-1.08a2.772,2.772,0,0,1-2.055.975,2.4,2.4,0,0,1-2.37-2.535v-.03a2.389,2.389,0,0,1,2.295-2.52,2.658,2.658,0,0,1,2.04.99l1.14-1.215a4,4,0,0,0-3.165-1.365,4.088,4.088,0,0,0-4.125,4.14v.03A4.044,4.044,0,0,0,150.75,52.18Zm7.635-.015a2.85,2.85,0,0,0,2.475-1.4V52h1.83V44.08h-1.83v4.47a1.749,1.749,0,0,1-1.785,1.95c-1.08,0-1.695-.69-1.695-1.92v-4.5h-1.815v5.04A2.72,2.72,0,0,0,158.385,52.165Zm9.285-.015c1.65,0,2.94-.825,2.94-2.49v-.03c0-1.425-1.3-1.95-2.46-2.31-.93-.3-1.785-.54-1.785-1.125v-.03c0-.45.4-.78,1.11-.78a4.6,4.6,0,0,1,2.235.75l.72-1.29a5.491,5.491,0,0,0-2.91-.9c-1.575,0-2.82.915-2.82,2.415v.03c0,1.515,1.305,1.995,2.475,2.325.93.285,1.77.495,1.77,1.11v.03c0,.525-.45.855-1.23.855a4.481,4.481,0,0,1-2.6-.975l-.81,1.23A5.564,5.564,0,0,0,167.67,52.15Zm7.3-.015a3.138,3.138,0,0,0,1.635-.4V50.245a2.44,2.44,0,0,1-1.125.27.864.864,0,0,1-.975-.99V45.64h2.13V44.08h-2.13V41.9h-1.815V44.08H171.69v1.56h1.005v4.17A2.03,2.03,0,0,0,174.975,52.135Zm7.05.045a4.141,4.141,0,0,0,4.245-4.125v-.03a4.224,4.224,0,0,0-8.445.03v.03A4.1,4.1,0,0,0,182.025,52.18Zm.03-1.59a2.441,2.441,0,0,1-2.415-2.535v-.03a2.377,2.377,0,0,1,2.385-2.52,2.448,2.448,0,0,1,2.43,2.55v.03A2.376,2.376,0,0,1,182.055,50.59Zm6.06,1.41h1.815V47.53a1.73,1.73,0,0,1,1.695-1.965c1.005,0,1.605.69,1.605,1.92V52h1.815V47.53c0-1.275.7-1.965,1.695-1.965,1.02,0,1.6.675,1.6,1.935V52h1.815V46.945c0-1.935-1.05-3.03-2.775-3.03a3.186,3.186,0,0,0-2.67,1.4,2.513,2.513,0,0,0-2.37-1.4,2.838,2.838,0,0,0-2.415,1.365v-1.2h-1.815Zm17.88.18a4.006,4.006,0,0,0,3.24-1.485l-1.065-.945a2.876,2.876,0,0,1-2.145.945,2.211,2.211,0,0,1-2.28-2.01h5.82c.015-.18.03-.345.03-.51,0-2.28-1.275-4.26-3.795-4.26a3.931,3.931,0,0,0-3.87,4.125v.03A3.952,3.952,0,0,0,206,52.18Zm-2.265-4.695a2.143,2.143,0,0,1,2.055-2.085,2.056,2.056,0,0,1,2.01,2.085ZM211.425,52h1.815V48.985c0-2.1,1.11-3.135,2.7-3.135h.1V43.93a2.808,2.808,0,0,0-2.8,1.935V44.08h-1.815Zm6.36-6.255a2.184,2.184,0,0,0,2.31-2.49V41.5H218.1v2.055h.78c.06.78-.375,1.245-1.29,1.41Zm6.81,6.405c1.65,0,2.94-.825,2.94-2.49v-.03c0-1.425-1.3-1.95-2.46-2.31-.93-.3-1.785-.54-1.785-1.125v-.03c0-.45.4-.78,1.11-.78a4.6,4.6,0,0,1,2.235.75l.72-1.29a5.491,5.491,0,0,0-2.91-.9c-1.575,0-2.82.915-2.82,2.415v.03c0,1.515,1.305,1.995,2.475,2.325.93.285,1.77.495,1.77,1.11v.03c0,.525-.45.855-1.23.855a4.481,4.481,0,0,1-2.6-.975l-.81,1.23A5.564,5.564,0,0,0,224.6,52.15Zm12.93.03a4.006,4.006,0,0,0,3.24-1.485L239.7,49.75a2.876,2.876,0,0,1-2.145.945,2.211,2.211,0,0,1-2.28-2.01h5.82c.015-.18.03-.345.03-.51,0-2.28-1.275-4.26-3.795-4.26a3.931,3.931,0,0,0-3.87,4.125v.03A3.952,3.952,0,0,0,237.525,52.18Zm-2.265-4.695a2.143,2.143,0,0,1,2.055-2.085,2.056,2.056,0,0,1,2.01,2.085Zm8.64-3.4h-1.98l2.79,3.885L241.815,52h1.935l1.935-2.82,1.95,2.82h1.98l-2.91-4.05,2.79-3.87H247.56l-1.83,2.655Zm7.335-1.215h1.95V41.14h-1.95ZM251.31,52h1.815V44.08H251.31Zm6.9.15c1.65,0,2.94-.825,2.94-2.49v-.03c0-1.425-1.3-1.95-2.46-2.31-.93-.3-1.785-.54-1.785-1.125v-.03c0-.45.4-.78,1.11-.78a4.6,4.6,0,0,1,2.235.75l.72-1.29a5.491,5.491,0,0,0-2.91-.9c-1.575,0-2.82.915-2.82,2.415v.03c0,1.515,1.3,1.995,2.475,2.325.93.285,1.77.495,1.77,1.11v.03c0,.525-.45.855-1.23.855a4.481,4.481,0,0,1-2.6-.975l-.81,1.23A5.564,5.564,0,0,0,258.21,52.15Zm7.305-.015a3.138,3.138,0,0,0,1.635-.4V50.245a2.44,2.44,0,0,1-1.125.27.864.864,0,0,1-.975-.99V45.64h2.13V44.08h-2.13V41.9h-1.815V44.08H262.23v1.56h1.005v4.17A2.03,2.03,0,0,0,265.515,52.135Zm3.54-9.27h1.95V41.14h-1.95ZM269.13,52h1.815V44.08H269.13Zm4.185,0h1.815V47.53a1.762,1.762,0,0,1,1.785-1.965c1.08,0,1.7.705,1.7,1.935V52h1.815V46.945a2.715,2.715,0,0,0-2.82-3.03,2.871,2.871,0,0,0-2.475,1.38V44.08h-1.815Zm12.825,2.43a4.458,4.458,0,0,0,3.255-1.065,4.052,4.052,0,0,0,1-2.985v-6.3h-1.815v1.185a3.417,3.417,0,0,0-2.775-1.35,3.572,3.572,0,0,0-3.6,3.72v.03a3.559,3.559,0,0,0,3.6,3.7,3.317,3.317,0,0,0,2.79-1.455v.615a2.214,2.214,0,0,1-2.505,2.43,5.192,5.192,0,0,1-2.82-.84l-.675,1.365A6.823,6.823,0,0,0,286.14,54.43Zm.15-4.6a2.157,2.157,0,0,1-2.25-2.175v-.03a2.14,2.14,0,0,1,2.25-2.175,2.212,2.212,0,0,1,2.325,2.175v.03A2.212,2.212,0,0,1,286.29,49.825Zm10.92-6.96h1.95V41.14h-1.95ZM297.285,52H299.1V44.08h-1.815Zm4.185,0h1.815V47.53a1.762,1.762,0,0,1,1.785-1.965c1.08,0,1.7.705,1.7,1.935V52h1.815V46.945a2.715,2.715,0,0,0-2.82-3.03,2.871,2.871,0,0,0-2.475,1.38V44.08H301.47Zm9.705,0h1.815V45.64h2.07v-1.5h-2.1v-.435c0-.825.36-1.2,1.05-1.2a3.189,3.189,0,0,1,1.065.195V41.17a4.856,4.856,0,0,0-1.47-.21,2.4,2.4,0,0,0-1.785.63,2.677,2.677,0,0,0-.645,1.95v.585H310.17V45.64h1.005Zm5.235,0h1.815V48.985c0-2.1,1.11-3.135,2.7-3.135h.105V43.93a2.808,2.808,0,0,0-2.805,1.935V44.08H316.41Zm8.1.165a3.219,3.219,0,0,0,2.58-1.155V52h1.77V47.305a3.287,3.287,0,0,0-.855-2.445,3.549,3.549,0,0,0-2.625-.885,6.758,6.758,0,0,0-2.985.645l.48,1.425a5.514,5.514,0,0,1,2.265-.495c1.275,0,1.965.6,1.965,1.725v.195a6.617,6.617,0,0,0-2.13-.33c-1.935,0-3.27.84-3.27,2.55v.03A2.53,2.53,0,0,0,324.51,52.165Zm.51-1.32c-.87,0-1.545-.435-1.545-1.2v-.03c0-.825.69-1.32,1.86-1.32a5.032,5.032,0,0,1,1.8.315v.54C327.135,50.155,326.22,50.845,325.02,50.845Zm8.73,1.305c1.65,0,2.94-.825,2.94-2.49v-.03c0-1.425-1.305-1.95-2.46-2.31-.93-.3-1.785-.54-1.785-1.125v-.03c0-.45.4-.78,1.11-.78a4.6,4.6,0,0,1,2.235.75l.72-1.29a5.49,5.49,0,0,0-2.91-.9c-1.575,0-2.82.915-2.82,2.415v.03c0,1.515,1.3,1.995,2.475,2.325.93.285,1.77.495,1.77,1.11v.03c0,.525-.45.855-1.23.855a4.481,4.481,0,0,1-2.6-.975l-.81,1.23A5.564,5.564,0,0,0,333.75,52.15Zm7.305-.015a3.138,3.138,0,0,0,1.635-.4V50.245a2.44,2.44,0,0,1-1.125.27.864.864,0,0,1-.975-.99V45.64h2.13V44.08h-2.13V41.9h-1.815V44.08H337.77v1.56h1.005v4.17A2.03,2.03,0,0,0,341.055,52.135Zm3.51-.135h1.815V48.985c0-2.1,1.11-3.135,2.7-3.135h.105V43.93a2.808,2.808,0,0,0-2.805,1.935V44.08h-1.815Zm8.925.165a2.85,2.85,0,0,0,2.475-1.4V52h1.83V44.08h-1.83v4.47a1.749,1.749,0,0,1-1.785,1.95c-1.08,0-1.7-.69-1.7-1.92v-4.5H350.67v5.04A2.72,2.72,0,0,0,353.49,52.165Zm10.23.015a4.007,4.007,0,0,0,3.24-1.485l-1.1-1.08a2.772,2.772,0,0,1-2.055.975,2.4,2.4,0,0,1-2.37-2.535v-.03a2.389,2.389,0,0,1,2.3-2.52,2.658,2.658,0,0,1,2.04.99l1.14-1.215a4,4,0,0,0-3.165-1.365,4.088,4.088,0,0,0-4.125,4.14v.03A4.044,4.044,0,0,0,363.72,52.18Zm7.56-.045a3.138,3.138,0,0,0,1.635-.4V50.245a2.44,2.44,0,0,1-1.125.27.864.864,0,0,1-.975-.99V45.64h2.13V44.08h-2.13V41.9H369V44.08h-1.005v1.56H369v4.17A2.03,2.03,0,0,0,371.28,52.135Zm6.24.03a2.85,2.85,0,0,0,2.475-1.4V52h1.83V44.08h-1.83v4.47a1.749,1.749,0,0,1-1.785,1.95c-1.08,0-1.7-.69-1.7-1.92v-4.5H374.7v5.04A2.72,2.72,0,0,0,377.52,52.165ZM384.09,52H385.9V48.985c0-2.1,1.11-3.135,2.7-3.135h.105V43.93a2.808,2.808,0,0,0-2.805,1.935V44.08H384.09Zm9.555.18a4.006,4.006,0,0,0,3.24-1.485l-1.065-.945a2.876,2.876,0,0,1-2.145.945,2.211,2.211,0,0,1-2.28-2.01h5.82c.015-.18.03-.345.03-.51,0-2.28-1.275-4.26-3.795-4.26a3.931,3.931,0,0,0-3.87,4.125v.03A3.952,3.952,0,0,0,393.645,52.18Zm-2.265-4.695a2.143,2.143,0,0,1,2.055-2.085,2.056,2.056,0,0,1,2.01,2.085ZM1.35,104H9.21v-1.65H3.195V99.53H8.46V97.88H3.195V95.15h5.94V93.5H1.35Zm9.84,0h1.815V99.53a1.762,1.762,0,0,1,1.785-1.965c1.08,0,1.695.7,1.695,1.935V104H18.3V98.945a2.715,2.715,0,0,0-2.82-3.03,2.871,2.871,0,0,0-2.475,1.38V96.08H11.19Zm11.58.165a3.219,3.219,0,0,0,2.58-1.155V104h1.77V99.305a3.287,3.287,0,0,0-.855-2.445,3.549,3.549,0,0,0-2.625-.885,6.758,6.758,0,0,0-2.985.645l.48,1.425A5.514,5.514,0,0,1,23.4,97.55c1.275,0,1.965.6,1.965,1.725v.195a6.616,6.616,0,0,0-2.13-.33c-1.935,0-3.27.84-3.27,2.55v.03A2.53,2.53,0,0,0,22.77,104.165Zm.51-1.32c-.87,0-1.545-.435-1.545-1.2v-.03c0-.825.69-1.32,1.86-1.32a5.032,5.032,0,0,1,1.8.315v.54C25.4,102.155,24.48,102.845,23.28,102.845Zm10.53,1.32a3.789,3.789,0,0,0,3.675-4.11v-.03a3.789,3.789,0,0,0-3.675-4.11,3.17,3.17,0,0,0-2.7,1.485V93.05H29.3V104H31.11v-1.23A3.235,3.235,0,0,0,33.81,104.165Zm-.435-1.575a2.388,2.388,0,0,1-2.31-2.535v-.03a2.388,2.388,0,0,1,2.31-2.535,2.345,2.345,0,0,1,2.265,2.535v.03A2.319,2.319,0,0,1,33.375,102.59Zm6.09,1.41H41.28V93.05H39.465Zm7.815.18a4.006,4.006,0,0,0,3.24-1.485l-1.065-.945a2.876,2.876,0,0,1-2.145.945,2.211,2.211,0,0,1-2.28-2.01h5.82c.015-.18.03-.345.03-.51,0-2.28-1.275-4.26-3.795-4.26a3.931,3.931,0,0,0-3.87,4.125v.03A3.952,3.952,0,0,0,47.28,104.18Zm-2.265-4.695A2.143,2.143,0,0,1,47.07,97.4a2.056,2.056,0,0,1,2.01,2.085Zm10.41,4.665c1.65,0,2.94-.825,2.94-2.49v-.03c0-1.425-1.305-1.95-2.46-2.31-.93-.3-1.785-.54-1.785-1.125v-.03c0-.45.405-.78,1.11-.78a4.6,4.6,0,0,1,2.235.75l.72-1.29a5.491,5.491,0,0,0-2.91-.9c-1.575,0-2.82.915-2.82,2.415v.03c0,1.515,1.305,2,2.475,2.325.93.285,1.77.5,1.77,1.11v.03c0,.525-.45.855-1.23.855a4.481,4.481,0,0,1-2.6-.975l-.81,1.23A5.564,5.564,0,0,0,55.425,104.15Zm9.3-.15H66.54V99.53a1.762,1.762,0,0,1,1.785-1.965c1.08,0,1.695.7,1.695,1.935V104h1.815V98.945a2.715,2.715,0,0,0-2.82-3.03,2.871,2.871,0,0,0-2.475,1.38V96.08H64.725Zm13.065.18a4.141,4.141,0,0,0,4.245-4.125v-.03a4.224,4.224,0,0,0-8.445.03v.03A4.1,4.1,0,0,0,77.79,104.18Zm.03-1.59a2.441,2.441,0,0,1-2.415-2.535v-.03A2.377,2.377,0,0,1,77.79,97.5a2.448,2.448,0,0,1,2.43,2.55v.03A2.376,2.376,0,0,1,77.82,102.59ZM83.88,104h1.815V99.53a1.762,1.762,0,0,1,1.785-1.965c1.08,0,1.695.7,1.695,1.935V104H90.99V98.945a2.715,2.715,0,0,0-2.82-3.03,2.871,2.871,0,0,0-2.475,1.38V96.08H83.88Zm9-3.705h4.44V98.51H92.88Zm9.075,3.84a3.138,3.138,0,0,0,1.635-.4v-1.485a2.44,2.44,0,0,1-1.125.27.864.864,0,0,1-.975-.99V97.64h2.13V96.08h-2.13V93.9H99.675V96.08h-1v1.56h1v4.17A2.03,2.03,0,0,0,101.955,104.135Zm6.915.045a4.006,4.006,0,0,0,3.24-1.485l-1.065-.945a2.876,2.876,0,0,1-2.145.945,2.211,2.211,0,0,1-2.28-2.01h5.82c.015-.18.03-.345.03-.51,0-2.28-1.275-4.26-3.8-4.26a3.931,3.931,0,0,0-3.87,4.125v.03A3.952,3.952,0,0,0,108.87,104.18ZM106.6,99.485A2.143,2.143,0,0,1,108.66,97.4a2.056,2.056,0,0,1,2.01,2.085Zm11.355,4.695a4.007,4.007,0,0,0,3.24-1.485l-1.1-1.08a2.772,2.772,0,0,1-2.055.975,2.4,2.4,0,0,1-2.37-2.535v-.03a2.389,2.389,0,0,1,2.3-2.52,2.658,2.658,0,0,1,2.04.99l1.14-1.215a4,4,0,0,0-3.165-1.365,4.088,4.088,0,0,0-4.125,4.14v.03A4.044,4.044,0,0,0,117.96,104.18Zm4.9-.18h1.815V99.53a1.762,1.762,0,0,1,1.785-1.965c1.08,0,1.7.7,1.7,1.935V104h1.815V98.945a2.715,2.715,0,0,0-2.82-3.03,2.871,2.871,0,0,0-2.475,1.38V93.05h-1.815Zm9.3,0h1.815V99.53a1.762,1.762,0,0,1,1.785-1.965c1.08,0,1.695.7,1.695,1.935V104h1.815V98.945a2.715,2.715,0,0,0-2.82-3.03,2.871,2.871,0,0,0-2.475,1.38V96.08h-1.815Zm9.33-9.135h1.95V93.14h-1.95ZM141.57,104h1.815V96.08H141.57Zm7.845.18a4.007,4.007,0,0,0,3.24-1.485l-1.095-1.08a2.772,2.772,0,0,1-2.055.975,2.4,2.4,0,0,1-2.37-2.535v-.03a2.389,2.389,0,0,1,2.295-2.52,2.658,2.658,0,0,1,2.04.99l1.14-1.215a4,4,0,0,0-3.165-1.365,4.088,4.088,0,0,0-4.125,4.14v.03A4.044,4.044,0,0,0,149.415,104.18Zm7.185-.015a3.219,3.219,0,0,0,2.58-1.155V104h1.77V99.305a3.286,3.286,0,0,0-.855-2.445,3.549,3.549,0,0,0-2.625-.885,6.758,6.758,0,0,0-2.985.645l.48,1.425a5.514,5.514,0,0,1,2.265-.495c1.275,0,1.965.6,1.965,1.725v.195a6.616,6.616,0,0,0-2.13-.33c-1.935,0-3.27.84-3.27,2.55v.03A2.53,2.53,0,0,0,156.6,104.165Zm.51-1.32c-.87,0-1.545-.435-1.545-1.2v-.03c0-.825.69-1.32,1.86-1.32a5.032,5.032,0,0,1,1.8.315v.54C159.225,102.155,158.31,102.845,157.11,102.845ZM163.23,104h1.815V93.05H163.23Zm11.4.15c1.65,0,2.94-.825,2.94-2.49v-.03c0-1.425-1.3-1.95-2.46-2.31-.93-.3-1.785-.54-1.785-1.125v-.03c0-.45.4-.78,1.11-.78a4.6,4.6,0,0,1,2.235.75l.72-1.29a5.491,5.491,0,0,0-2.91-.9c-1.575,0-2.82.915-2.82,2.415v.03c0,1.515,1.305,2,2.475,2.325.93.285,1.77.5,1.77,1.11v.03c0,.525-.45.855-1.23.855a4.481,4.481,0,0,1-2.6-.975l-.81,1.23A5.564,5.564,0,0,0,174.63,104.15Zm7.305-.015a3.138,3.138,0,0,0,1.635-.4v-1.485a2.44,2.44,0,0,1-1.125.27.864.864,0,0,1-.975-.99V97.64h2.13V96.08h-2.13V93.9h-1.815V96.08H178.65v1.56h1.005v4.17A2.03,2.03,0,0,0,181.935,104.135Zm5.79.03a3.219,3.219,0,0,0,2.58-1.155V104h1.77V99.305a3.286,3.286,0,0,0-.855-2.445,3.549,3.549,0,0,0-2.625-.885,6.758,6.758,0,0,0-2.985.645l.48,1.425a5.514,5.514,0,0,1,2.265-.495c1.275,0,1.965.6,1.965,1.725v.195a6.616,6.616,0,0,0-2.13-.33c-1.935,0-3.27.84-3.27,2.55v.03A2.53,2.53,0,0,0,187.725,104.165Zm.51-1.32c-.87,0-1.545-.435-1.545-1.2v-.03c0-.825.69-1.32,1.86-1.32a5.032,5.032,0,0,1,1.8.315v.54C190.35,102.155,189.435,102.845,188.235,102.845ZM200.295,104h1.815V97.64h2.07v-1.5h-2.1v-.435c0-.825.36-1.2,1.05-1.2a3.189,3.189,0,0,1,1.065.195V93.17a4.856,4.856,0,0,0-1.47-.21,2.4,2.4,0,0,0-1.785.63,2.677,2.677,0,0,0-.645,1.95v.585H199.29V97.64h1.005Zm-5.64,0h1.815V97.64h2.07v-1.5h-2.1v-.435c0-.825.36-1.2,1.05-1.2a3.189,3.189,0,0,1,1.065.195V93.17a4.856,4.856,0,0,0-1.47-.21,2.4,2.4,0,0,0-1.785.63,2.677,2.677,0,0,0-.645,1.95v.585H193.65V97.64h1.005Zm18.03.135a3.138,3.138,0,0,0,1.635-.4v-1.485a2.44,2.44,0,0,1-1.125.27.864.864,0,0,1-.975-.99V97.64h2.13V96.08h-2.13V93.9H210.4V96.08H209.4v1.56H210.4v4.17A2.03,2.03,0,0,0,212.685,104.135Zm7.05.045a4.141,4.141,0,0,0,4.245-4.125v-.03a4.224,4.224,0,0,0-8.445.03v.03A4.1,4.1,0,0,0,219.735,104.18Zm.03-1.59a2.441,2.441,0,0,1-2.415-2.535v-.03a2.377,2.377,0,0,1,2.385-2.52,2.448,2.448,0,0,1,2.43,2.55v.03A2.376,2.376,0,0,1,219.765,102.59Zm13.275,1.56c1.65,0,2.94-.825,2.94-2.49v-.03c0-1.425-1.3-1.95-2.46-2.31-.93-.3-1.785-.54-1.785-1.125v-.03c0-.45.4-.78,1.11-.78a4.6,4.6,0,0,1,2.235.75l.72-1.29a5.491,5.491,0,0,0-2.91-.9c-1.575,0-2.82.915-2.82,2.415v.03c0,1.515,1.305,2,2.475,2.325.93.285,1.77.5,1.77,1.11v.03c0,.525-.45.855-1.23.855a4.481,4.481,0,0,1-2.6-.975l-.81,1.23A5.564,5.564,0,0,0,233.04,104.15Zm8.43.03a4.006,4.006,0,0,0,3.24-1.485l-1.065-.945a2.876,2.876,0,0,1-2.145.945,2.211,2.211,0,0,1-2.28-2.01h5.82c.015-.18.03-.345.03-.51,0-2.28-1.275-4.26-3.795-4.26a3.931,3.931,0,0,0-3.87,4.125v.03A3.952,3.952,0,0,0,241.47,104.18Zm-2.265-4.695A2.143,2.143,0,0,1,241.26,97.4a2.056,2.056,0,0,1,2.01,2.085Zm11.355,4.695a4.007,4.007,0,0,0,3.24-1.485l-1.095-1.08a2.772,2.772,0,0,1-2.055.975,2.4,2.4,0,0,1-2.37-2.535v-.03a2.389,2.389,0,0,1,2.295-2.52,2.658,2.658,0,0,1,2.04.99l1.14-1.215a4,4,0,0,0-3.165-1.365,4.088,4.088,0,0,0-4.125,4.14v.03A4.044,4.044,0,0,0,250.56,104.18Zm7.635-.015a2.85,2.85,0,0,0,2.475-1.4V104h1.83V96.08h-1.83v4.47a1.749,1.749,0,0,1-1.785,1.95c-1.08,0-1.7-.69-1.7-1.92v-4.5h-1.815v5.04A2.72,2.72,0,0,0,258.2,104.165Zm6.57-.165h1.815v-3.015c0-2.1,1.11-3.135,2.7-3.135h.105V95.93a2.808,2.808,0,0,0-2.805,1.935V96.08h-1.815Zm9.555.18a4.006,4.006,0,0,0,3.24-1.485l-1.065-.945a2.876,2.876,0,0,1-2.145.945,2.211,2.211,0,0,1-2.28-2.01h5.82c.015-.18.03-.345.03-.51,0-2.28-1.275-4.26-3.795-4.26a3.931,3.931,0,0,0-3.87,4.125v.03A3.952,3.952,0,0,0,274.32,104.18Zm-2.265-4.695A2.143,2.143,0,0,1,274.11,97.4a2.056,2.056,0,0,1,2.01,2.085Zm15.96,4.695a4.141,4.141,0,0,0,4.245-4.125v-.03a4.224,4.224,0,0,0-8.445.03v.03A4.1,4.1,0,0,0,288.015,104.18Zm.03-1.59a2.441,2.441,0,0,1-2.415-2.535v-.03a2.377,2.377,0,0,1,2.385-2.52,2.448,2.448,0,0,1,2.43,2.55v.03A2.376,2.376,0,0,1,288.045,102.59Zm6.06,1.41h1.815V99.53a1.762,1.762,0,0,1,1.785-1.965c1.08,0,1.7.7,1.7,1.935V104h1.815V98.945a2.715,2.715,0,0,0-2.82-3.03,2.871,2.871,0,0,0-2.475,1.38V96.08h-1.815Zm9-3.705h4.44V98.51h-4.44Zm10.935,3.87a3.789,3.789,0,0,0,3.675-4.11v-.03a3.789,3.789,0,0,0-3.675-4.11,3.17,3.17,0,0,0-2.7,1.485V93.05h-1.815V104h1.815v-1.23A3.235,3.235,0,0,0,314.04,104.165Zm-.435-1.575a2.388,2.388,0,0,1-2.31-2.535v-.03a2.388,2.388,0,0,1,2.31-2.535,2.345,2.345,0,0,1,2.265,2.535v.03A2.319,2.319,0,0,1,313.605,102.59Zm9.75,1.59a4.141,4.141,0,0,0,4.245-4.125v-.03a4.224,4.224,0,0,0-8.445.03v.03A4.1,4.1,0,0,0,323.355,104.18Zm.03-1.59a2.441,2.441,0,0,1-2.415-2.535v-.03a2.377,2.377,0,0,1,2.385-2.52,2.448,2.448,0,0,1,2.43,2.55v.03A2.376,2.376,0,0,1,323.385,102.59Zm8.34,1.575a3.219,3.219,0,0,0,2.58-1.155V104h1.77V99.305a3.287,3.287,0,0,0-.855-2.445,3.549,3.549,0,0,0-2.625-.885,6.758,6.758,0,0,0-2.985.645l.48,1.425a5.514,5.514,0,0,1,2.265-.495c1.275,0,1.965.6,1.965,1.725v.195a6.617,6.617,0,0,0-2.13-.33c-1.935,0-3.27.84-3.27,2.55v.03A2.53,2.53,0,0,0,331.725,104.165Zm.51-1.32c-.87,0-1.545-.435-1.545-1.2v-.03c0-.825.69-1.32,1.86-1.32a5.032,5.032,0,0,1,1.8.315v.54C334.35,102.155,333.435,102.845,332.235,102.845ZM338.25,104h1.815v-3.015c0-2.1,1.11-3.135,2.7-3.135h.105V95.93a2.808,2.808,0,0,0-2.805,1.935V96.08H338.25Zm9.24.165a3.17,3.17,0,0,0,2.7-1.485V104H352V93.05H350.19v4.26a3.24,3.24,0,0,0-2.7-1.395,3.78,3.78,0,0,0-3.675,4.11v.03A3.8,3.8,0,0,0,347.49,104.165Zm.435-1.575a2.356,2.356,0,0,1-2.28-2.535v-.03a2.322,2.322,0,0,1,2.28-2.535,2.377,2.377,0,0,1,2.3,2.535v.03A2.386,2.386,0,0,1,347.925,102.59ZM359.1,104h1.845V93.5H359.1Zm8.205.18a4.141,4.141,0,0,0,4.245-4.125v-.03a4.224,4.224,0,0,0-8.445.03v.03A4.1,4.1,0,0,0,367.3,104.18Zm.03-1.59a2.441,2.441,0,0,1-2.415-2.535v-.03A2.377,2.377,0,0,1,367.3,97.5a2.448,2.448,0,0,1,2.43,2.55v.03A2.376,2.376,0,0,1,367.335,102.59Zm8.85,1.41h1.86V95.21h3.33V93.5h-8.52v1.71h3.33Zm14.7.165a3.17,3.17,0,0,0,2.7-1.485V104H395.4V93.05h-1.815v4.26a3.24,3.24,0,0,0-2.7-1.395,3.78,3.78,0,0,0-3.675,4.11v.03A3.8,3.8,0,0,0,390.885,104.165Zm.435-1.575a2.356,2.356,0,0,1-2.28-2.535v-.03a2.322,2.322,0,0,1,2.28-2.535,2.377,2.377,0,0,1,2.3,2.535v.03A2.386,2.386,0,0,1,391.32,102.59Zm9.99,1.59a4.006,4.006,0,0,0,3.24-1.485l-1.065-.945a2.876,2.876,0,0,1-2.145.945,2.211,2.211,0,0,1-2.28-2.01h5.82c.015-.18.03-.345.03-.51,0-2.28-1.275-4.26-3.795-4.26a3.931,3.931,0,0,0-3.87,4.125v.03A3.952,3.952,0,0,0,401.31,104.18Zm-2.265-4.695A2.143,2.143,0,0,1,401.1,97.4a2.056,2.056,0,0,1,2.01,2.085Zm9.825,4.575h1.635l3.24-7.98h-1.9L409.7,101.9l-2.13-5.82h-1.95Zm6.45-9.195h1.95V93.14h-1.95Zm.075,9.135h1.815V96.08h-1.815Zm7.845.18a4.007,4.007,0,0,0,3.24-1.485l-1.1-1.08a2.772,2.772,0,0,1-2.055.975,2.4,2.4,0,0,1-2.37-2.535v-.03a2.389,2.389,0,0,1,2.3-2.52,2.658,2.658,0,0,1,2.04.99l1.14-1.215a4,4,0,0,0-3.165-1.365,4.088,4.088,0,0,0-4.125,4.14v.03A4.044,4.044,0,0,0,423.24,104.18Zm8.31,0a4.006,4.006,0,0,0,3.24-1.485l-1.065-.945a2.876,2.876,0,0,1-2.145.945,2.211,2.211,0,0,1-2.28-2.01h5.82c.015-.18.03-.345.03-.51,0-2.28-1.275-4.26-3.795-4.26a3.931,3.931,0,0,0-3.87,4.125v.03A3.952,3.952,0,0,0,431.55,104.18Zm-2.265-4.695A2.143,2.143,0,0,1,431.34,97.4a2.056,2.056,0,0,1,2.01,2.085Zm10.41,4.665c1.65,0,2.94-.825,2.94-2.49v-.03c0-1.425-1.305-1.95-2.46-2.31-.93-.3-1.785-.54-1.785-1.125v-.03c0-.45.4-.78,1.11-.78a4.6,4.6,0,0,1,2.235.75l.72-1.29a5.49,5.49,0,0,0-2.91-.9c-1.575,0-2.82.915-2.82,2.415v.03c0,1.515,1.3,2,2.475,2.325.93.285,1.77.5,1.77,1.11v.03c0,.525-.45.855-1.23.855a4.481,4.481,0,0,1-2.6-.975l-.81,1.23A5.564,5.564,0,0,0,439.7,104.15Z" transform="translate(201 733)" fill="#666"/>
      </g>
    </g>
  </g>
</svg>
